999
dxfrw 0.6.3
  0
SECTION
  2
HEADER
  9
$ACADVER
  1
AC1021
  9
$DWGCODEPAGE
  3
ANSI_1252
  9
$INSBASE
 10
0
 20
0
 30
0
  9
$EXTMIN
 10
10000000000
 20
10000000000
 30
0
  9
$EXTMAX
 10
-10000000000
 20
-10000000000
 30
0
  9
$LIMMIN
 10
0
 20
0
  9
$LIMMAX
 10
420
 20
297
  9
$ORTHOMODE
 70
    0
  9
$REGENMODE
 70
    1
  9
$FILLMODE
 70
    1
  9
$QTEXTMODE
 70
    0
  9
$MIRRTEXT
 70
    0
  9
$LTSCALE
 40
1
  9
$ATTMODE
 70
    0
  9
$TEXTSIZE
 40
2.5
  9
$TRACEWID
 40
15.68
  9
$TEXTSTYLE
  7
STANDARD
  9
$CLAYER
  8
Wires
  9
$CELTYPE
  6
BYLAYER
  9
$CECOLOR
 62
  256
  9
$CELTSCALE
 40
1
  9
$DISPSILH
 70
    0
  9
$DIMSCALE
 40
2.5
  9
$DIMASZ
 40
2.5
  9
$DIMEXO
 40
0.625
  9
$DIMDLI
 40
3.75
  9
$DIMRND
 40
0
  9
$DIMDLE
 40
0
  9
$DIMEXE
 40
1.25
  9
$DIMTP
 40
0
  9
$DIMTM
 40
0
  9
$DIMTXT
 40
2.5
  9
$DIMCEN
 40
2.5
  9
$DIMTSZ
 40
0
  9
$DIMTOL
 70
    0
  9
$DIMLIM
 70
    0
  9
$DIMTIH
 70
    0
  9
$DIMTOH
 70
    0
  9
$DIMSE1
 70
    0
  9
$DIMSE2
 70
    0
  9
$DIMTAD
 70
    1
  9
$DIMZIN
 70
    8
  9
$DIMBLK
  1

  9
$DIMASO
 70
    1
  9
$DIMSHO
 70
    1
  9
$DIMPOST
  1

  9
$DIMAPOST
  1

  9
$DIMALT
 70
    0
  9
$DIMALTD
 70
    3
  9
$DIMALTF
 40
0.03937
  9
$DIMLFAC
 40
1
  9
$DIMTOFL
 70
    1
  9
$DIMTVP
 40
0
  9
$DIMTIX
 70
    0
  9
$DIMSOXD
 70
    0
  9
$DIMSAH
 70
    0
  9
$DIMBLK1
  1

  9
$DIMBLK2
  1

  9
$DIMSTYLE
  2
STANDARD
  9
$DIMCLRD
 70
    0
  9
$DIMCLRE
 70
    0
  9
$DIMCLRT
 70
    0
  9
$DIMTFAC
 40
1
  9
$DIMGAP
 40
0.625
  9
$DIMJUST
 70
    0
  9
$DIMSD1
 70
    0
  9
$DIMSD2
 70
    0
  9
$DIMTOLJ
 70
    0
  9
$DIMTZIN
 70
    8
  9
$DIMALTZ
 70
    0
  9
$DIMALTTZ
 70
    0
  9
$DIMUPT
 70
    0
  9
$DIMDEC
 70
    2
  9
$DIMTDEC
 70
    2
  9
$DIMALTU
 70
    2
  9
$DIMALTTD
 70
    3
  9
$DIMTXSTY
  7
standard
  9
$DIMAUNIT
 70
    0
  9
$DIMADEC
 70
    0
  9
$DIMALTRND
 40
0
  9
$DIMAZIN
 70
    0
  9
$DIMDSEP
 70
   44
  9
$DIMATFIT
 70
    3
  9
$DIMFRAC
 70
    0
  9
$DIMLDRBLK
  1
STANDARD
  9
$DIMLUNIT
 70
    2
  9
$DIMLWD
 70
   -2
  9
$DIMLWE
 70
   -2
  9
$DIMTMOVE
 70
    0
  9
$DIMFXL
 40
1
  9
$DIMFXLON
 70
    0
  9
$DIMJOGANG
 40
0.7854
  9
$DIMTFILL
 70
    0
  9
$DIMTFILLCLR
 70
    0
  9
$DIMARCSYM
 70
    0
  9
$DIMLTYPE
  6

  9
$DIMLTEX1
  6

  9
$DIMLTEX2
  6

  9
$LUNITS
 70
    2
  9
$LUPREC
 70
    4
  9
$SKETCHINC
 40
1
  9
$FILLETRAD
 40
0
  9
$AUNITS
 70
    0
  9
$AUPREC
 70
    2
  9
$MENU
  1
.
  9
$ELEVATION
 40
0
  9
$PELEVATION
 40
0
  9
$THICKNESS
 40
0
  9
$LIMCHECK
 70
    0
  9
$CHAMFERA
 40
0
  9
$CHAMFERB
 40
0
  9
$CHAMFERC
 40
0
  9
$CHAMFERD
 40
0
  9
$SKPOLY
 70
    0
  9
$USRTIMER
 70
    1
  9
$ANGBASE
 50
0
  9
$ANGDIR
 70
    0
  9
$PDMODE
 70
   34
  9
$PDSIZE
 40
0
  9
$PLINEWID
 40
0
  9
$SPLFRAME
 70
    0
  9
$SPLINETYPE
 70
    2
  9
$SPLINESEGS
 70
    8
  9
$HANDSEED
  5
20000
  9
$SURFTAB1
 70
    6
  9
$SURFTAB2
 70
    6
  9
$SURFTYPE
 70
    6
  9
$SURFU
 70
    6
  9
$SURFV
 70
    6
  9
$UCSBASE
  2

  9
$UCSNAME
  2

  9
$UCSORG
 10
0
 20
0
 30
0
  9
$UCSXDIR
 10
1
 20
0
 30
0
  9
$UCSYDIR
 10
0
 20
1
 30
0
  9
$UCSORTHOREF
  2

  9
$UCSORTHOVIEW
 70
    0
  9
$UCSORGTOP
 10
0
 20
0
 30
0
  9
$UCSORGBOTTOM
 10
0
 20
0
 30
0
  9
$UCSORGLEFT
 10
0
 20
0
 30
0
  9
$UCSORGRIGHT
 10
0
 20
0
 30
0
  9
$UCSORGFRONT
 10
0
 20
0
 30
0
  9
$UCSORGBACK
 10
0
 20
0
 30
0
  9
$PUCSBASE
  2

  9
$PUCSNAME
  2

  9
$PUCSORG
 10
0
 20
0
 30
0
  9
$PUCSXDIR
 10
1
 20
0
 30
0
  9
$PUCSYDIR
 10
0
 20
1
 30
0
  9
$PUCSORTHOREF
  2

  9
$PUCSORTHOVIEW
 70
    0
  9
$PUCSORGTOP
 10
0
 20
0
 30
0
  9
$PUCSORGBOTTOM
 10
0
 20
0
 30
0
  9
$PUCSORGLEFT
 10
0
 20
0
 30
0
  9
$PUCSORGRIGHT
 10
0
 20
0
 30
0
  9
$PUCSORGFRONT
 10
0
 20
0
 30
0
  9
$PUCSORGBACK
 10
0
 20
0
 30
0
  9
$USERI1
 70
    0
  9
$USERI2
 70
    0
  9
$USERI3
 70
    0
  9
$USERI4
 70
    0
  9
$USERI5
 70
    0
  9
$USERR1
 40
0
  9
$USERR2
 40
0
  9
$USERR3
 40
0
  9
$USERR4
 40
0
  9
$USERR5
 40
0
  9
$WORLDVIEW
 70
    1
  9
$SHADEDGE
 70
    3
  9
$SHADEDIF
 70
   70
  9
$TILEMODE
 70
    1
  9
$MAXACTVP
 70
   64
  9
$PINSBASE
 10
0
 20
0
 30
0
  9
$PLIMCHECK
 70
    0
  9
$PEXTMIN
 10
0
 20
0
 30
0
  9
$PEXTMAX
 10
0
 20
0
 30
0
  9
$GRIDMODE
 70
    1
  9
$SNAPSTYLE
 70
    0
  9
$GRIDUNIT
 10
0
 20
0
  9
$PLIMMIN
 10
0
 20
0
  9
$PLIMMAX
 10
297
 20
210
  9
$UNITMODE
 70
    0
  9
$VISRETAIN
 70
    1
  9
$PLINEGEN
 70
    0
  9
$PSLTSCALE
 70
    1
  9
$TREEDEPTH
 70
 3020
  9
$CMLSTYLE
  2
Standard
  9
$CMLJUST
 70
    0
  9
$CMLSCALE
 40
20
  9
$PROXYGRAPHICS
 70
    1
  9
$MEASUREMENT
 70
    1
  9
$CELWEIGHT
370
   -1
  9
$ENDCAPS
280
    0
  9
$JOINSTYLE
280
    0
  9
$LWDISPLAY
290
    0
  9
$INSUNITS
 70
    4
  9
$HYPERLINKBASE
  1

  9
$STYLESHEET
  1

  9
$XEDIT
290
    1
  9
$CEPSNTYPE
380
    0
  9
$PSTYLEMODE
290
    1
  9
$EXTNAMES
290
    1
  9
$PSVPSCALE
 40
1
  9
$OLESTARTUP
290
    0
  9
$SORTENTS
280
  127
  9
$INDEXCTL
280
    0
  9
$HIDETEXT
280
    1
  9
$XCLIPFRAME
290
    0
  9
$HALOGAP
280
    0
  9
$OBSCOLOR
 70
  257
  9
$OBSLTYPE
280
    0
  9
$INTERSECTIONDISPLAY
280
    0
  9
$INTERSECTIONCOLOR
 70
  257
  9
$DIMASSOC
280
    1
  9
$PROJECTNAME
  1

  9
$CAMERADISPLAY
290
    0
  9
$LENSLENGTH
 40
50
  9
$CAMERAHEIGHT
 40
0
  9
$STEPSPERSEC
 40
2
  9
$STEPSIZE
 40
50
  9
$3DDWFPREC
 40
2
  9
$PSOLWIDTH
 40
5
  9
$PSOLHEIGHT
 40
80
  9
$LOFTANG1
 40
1.570796326794897
  9
$LOFTANG2
 40
1.570796326794897
  9
$LOFTMAG1
 40
0
  9
$LOFTMAG2
 40
0
  9
$LOFTPARAM
 70
    7
  9
$LOFTNORMALS
280
    1
  9
$LATITUDE
 40
1
  9
$LONGITUDE
 40
1
  9
$NORTHDIRECTION
 40
0
  9
$TIMEZONE
 70
-8000
  9
$LIGHTGLYPHDISPLAY
280
    1
  9
$TILEMODELIGHTSYNCH
280
    1
  9
$SOLIDHIST
280
    1
  9
$SHOWHIST
280
    1
  9
$DWFFRAME
280
    2
  9
$DGNFRAME
280
    0
  9
$REALWORLDSCALE
290
    1
  9
$INTERFERECOLOR
 62
    1
  9
$CSHADOW
280
    0
  9
$SHADOWPLANELOCATION
 40
0
  0
ENDSEC
  0
SECTION
  2
CLASSES
  0
ENDSEC
  0
SECTION
  2
TABLES
  0
TABLE
  2
VPORT
  5
8
330
0
100
AcDbSymbolTable
 70
    1
  0
VPORT
  5
31
330
2
100
AcDbSymbolTableRecord
100
AcDbViewportTableRecord
  2
*ACTIVE
 70
    0
 10
0
 20
0
 11
1
 21
1
 12
128.7693723882911
 22
85.77712889633347
 13
0
 23
0
 14
10
 24
10
 15
10
 25
10
 16
0
 26
0
 36
1
 17
0
 27
0
 37
0
 40
113.493993269766
 41
1.822168087697929
 42
50
 43
0
 44
0
 50
0
 51
0
 71
    0
 72
  100
 73
    1
 74
    3
 75
    0
 76
    1
 77
    0
 78
    0
281
    0
 65
    1
110
0
120
0
130
0
111
1
121
0
131
0
112
0
122
1
132
0
 79
    0
146
0
348
10020
 60
    7
 61
    5
292
1
282
    1
141
0
142
0
 63
  250
421
3358443
  0
ENDTAB
  0
TABLE
  2
LTYPE
  5
5
330
0
100
AcDbSymbolTable
 70
    4
  0
LTYPE
  5
14
330
5
100
AcDbSymbolTableRecord
100
AcDbLinetypeTableRecord
  2
ByBlock
 70
    0
  3

 72
   65
 73
    0
 40
0
  0
LTYPE
  5
15
330
5
100
AcDbSymbolTableRecord
100
AcDbLinetypeTableRecord
  2
ByLayer
 70
    0
  3

 72
   65
 73
    0
 40
0
  0
LTYPE
  5
16
330
5
100
AcDbSymbolTableRecord
100
AcDbLinetypeTableRecord
  2
Continuous
 70
    0
  3
Solid line
 72
   65
 73
    0
 40
0
  0
LTYPE
  5
32
330
5
100
AcDbSymbolTableRecord
100
AcDbLinetypeTableRecord
  2
DOT
 70
    0
  3
Dot . . . . . . . . . . . . . . . . . . . . . .
 72
   65
 73
    2
 40
6.35
 49
0
 74
    0
 49
-6.35
 74
    0
  0
LTYPE
  5
33
330
5
100
AcDbSymbolTableRecord
100
AcDbLinetypeTableRecord
  2
DOTTINY
 70
    0
  3
Dot (.15x) .....................................
 72
   65
 73
    2
 40
0.9525
 49
0
 74
    0
 49
-0.9525
 74
    0
  0
LTYPE
  5
34
330
5
100
AcDbSymbolTableRecord
100
AcDbLinetypeTableRecord
  2
DOT2
 70
    0
  3
Dot (.5x) .....................................
 72
   65
 73
    2
 40
3.175
 49
0
 74
    0
 49
-3.175
 74
    0
  0
LTYPE
  5
35
330
5
100
AcDbSymbolTableRecord
100
AcDbLinetypeTableRecord
  2
DOTX2
 70
    0
  3
Dot (2x) .  .  .  .  .  .  .  .  .  .  .  .  .
 72
   65
 73
    2
 40
12.7
 49
0
 74
    0
 49
-12.7
 74
    0
  0
LTYPE
  5
36
330
5
100
AcDbSymbolTableRecord
100
AcDbLinetypeTableRecord
  2
DASHED
 70
    0
  3
Dashed _ _ _ _ _ _ _ _ _ _ _ _ _ _ _ _ _
 72
   65
 73
    2
 40
19.05
 49
12.7
 74
    0
 49
-6.35
 74
    0
  0
LTYPE
  5
37
330
5
100
AcDbSymbolTableRecord
100
AcDbLinetypeTableRecord
  2
DASHEDTINY
 70
    0
  3
Dashed (.15x) _ _ _ _ _ _ _ _ _ _ _ _ _ _ _ _ _
 72
   65
 73
    2
 40
2.8575
 49
1.905
 74
    0
 49
-0.9525
 74
    0
  0
LTYPE
  5
38
330
5
100
AcDbSymbolTableRecord
100
AcDbLinetypeTableRecord
  2
DASHED2
 70
    0
  3
Dashed (.5x) _ _ _ _ _ _ _ _ _ _ _ _ _ _ _ _ _
 72
   65
 73
    2
 40
9.524999999999999
 49
6.35
 74
    0
 49
-3.175
 74
    0
  0
LTYPE
  5
39
330
5
100
AcDbSymbolTableRecord
100
AcDbLinetypeTableRecord
  2
DASHEDX2
 70
    0
  3
Dashed (2x) ____  ____  ____  ____  ____  ___
 72
   65
 73
    2
 40
38.09999999999999
 49
25.4
 74
    0
 49
-12.7
 74
    0
  0
LTYPE
  5
3A
330
5
100
AcDbSymbolTableRecord
100
AcDbLinetypeTableRecord
  2
DASHDOT
 70
    0
  3
Dash dot __ . __ . __ . __ . __ . __ . __ . __
 72
   65
 73
    4
 40
25.4
 49
12.7
 74
    0
 49
-6.35
 74
    0
 49
0
 74
    0
 49
-6.35
 74
    0
  0
LTYPE
  5
3B
330
5
100
AcDbSymbolTableRecord
100
AcDbLinetypeTableRecord
  2
DASHDOTTINY
 70
    0
  3
Dash dot (.15x) _._._._._._._._._._._._._._._.
 72
   65
 73
    4
 40
3.81
 49
1.905
 74
    0
 49
-0.9525
 74
    0
 49
0
 74
    0
 49
-0.9525
 74
    0
  0
LTYPE
  5
3C
330
5
100
AcDbSymbolTableRecord
100
AcDbLinetypeTableRecord
  2
DASHDOT2
 70
    0
  3
Dash dot (.5x) _._._._._._._._._._._._._._._.
 72
   65
 73
    4
 40
12.7
 49
6.35
 74
    0
 49
-3.175
 74
    0
 49
0
 74
    0
 49
-3.175
 74
    0
  0
LTYPE
  5
3D
330
5
100
AcDbSymbolTableRecord
100
AcDbLinetypeTableRecord
  2
DASHDOTX2
 70
    0
  3
Dash dot (2x) ____  .  ____  .  ____  .  ___
 72
   65
 73
    4
 40
50.8
 49
25.4
 74
    0
 49
-12.7
 74
    0
 49
0
 74
    0
 49
-12.7
 74
    0
  0
LTYPE
  5
3E
330
5
100
AcDbSymbolTableRecord
100
AcDbLinetypeTableRecord
  2
DIVIDE
 70
    0
  3
Divide ____ . . ____ . . ____ . . ____ . . ____
 72
   65
 73
    6
 40
31.75
 49
12.7
 74
    0
 49
-6.35
 74
    0
 49
0
 74
    0
 49
-6.35
 74
    0
 49
0
 74
    0
 49
-6.35
 74
    0
  0
LTYPE
  5
3F
330
5
100
AcDbSymbolTableRecord
100
AcDbLinetypeTableRecord
  2
DIVIDETINY
 70
    0
  3
Divide (.15x) __..__..__..__..__..__..__..__.._
 72
   65
 73
    6
 40
4.7625
 49
1.905
 74
    0
 49
-0.9525
 74
    0
 49
0
 74
    0
 49
-0.9525
 74
    0
 49
0
 74
    0
 49
-0.9525
 74
    0
  0
LTYPE
  5
40
330
5
100
AcDbSymbolTableRecord
100
AcDbLinetypeTableRecord
  2
DIVIDE2
 70
    0
  3
Divide (.5x) __..__..__..__..__..__..__..__.._
 72
   65
 73
    6
 40
15.875
 49
6.35
 74
    0
 49
-3.175
 74
    0
 49
0
 74
    0
 49
-3.175
 74
    0
 49
0
 74
    0
 49
-3.175
 74
    0
  0
LTYPE
  5
41
330
5
100
AcDbSymbolTableRecord
100
AcDbLinetypeTableRecord
  2
DIVIDEX2
 70
    0
  3
Divide (2x) ________  .  .  ________  .  .  _
 72
   65
 73
    6
 40
63.5
 49
25.4
 74
    0
 49
-12.7
 74
    0
 49
0
 74
    0
 49
-12.7
 74
    0
 49
0
 74
    0
 49
-12.7
 74
    0
  0
LTYPE
  5
42
330
5
100
AcDbSymbolTableRecord
100
AcDbLinetypeTableRecord
  2
BORDER
 70
    0
  3
Border __ __ . __ __ . __ __ . __ __ . __ __ .
 72
   65
 73
    6
 40
44.45
 49
12.7
 74
    0
 49
-6.35
 74
    0
 49
12.7
 74
    0
 49
-6.35
 74
    0
 49
0
 74
    0
 49
-6.35
 74
    0
  0
LTYPE
  5
43
330
5
100
AcDbSymbolTableRecord
100
AcDbLinetypeTableRecord
  2
BORDERTINY
 70
    0
  3
Border (.15x) __.__.__.__.__.__.__.__.__.__.__.
 72
   65
 73
    6
 40
6.6675
 49
1.905
 74
    0
 49
-0.9525
 74
    0
 49
1.905
 74
    0
 49
-0.9525
 74
    0
 49
0
 74
    0
 49
-0.9525
 74
    0
  0
LTYPE
  5
44
330
5
100
AcDbSymbolTableRecord
100
AcDbLinetypeTableRecord
  2
BORDER2
 70
    0
  3
Border (.5x) __.__.__.__.__.__.__.__.__.__.__.
 72
   65
 73
    6
 40
22.225
 49
6.35
 74
    0
 49
-3.175
 74
    0
 49
6.35
 74
    0
 49
-3.175
 74
    0
 49
0
 74
    0
 49
-3.175
 74
    0
  0
LTYPE
  5
45
330
5
100
AcDbSymbolTableRecord
100
AcDbLinetypeTableRecord
  2
BORDERX2
 70
    0
  3
Border (2x) ____  ____  .  ____  ____  .  ___
 72
   65
 73
    6
 40
88.89999999999999
 49
25.4
 74
    0
 49
-12.7
 74
    0
 49
25.4
 74
    0
 49
-12.7
 74
    0
 49
0
 74
    0
 49
-12.7
 74
    0
  0
LTYPE
  5
46
330
5
100
AcDbSymbolTableRecord
100
AcDbLinetypeTableRecord
  2
CENTER
 70
    0
  3
Center ____ _ ____ _ ____ _ ____ _ ____ _ ____
 72
   65
 73
    4
 40
50.8
 49
31.75
 74
    0
 49
-6.35
 74
    0
 49
6.35
 74
    0
 49
-6.35
 74
    0
  0
LTYPE
  5
47
330
5
100
AcDbSymbolTableRecord
100
AcDbLinetypeTableRecord
  2
CENTERTINY
 70
    0
  3
Center (.15x) ___ _ ___ _ ___ _ ___ _ ___ _ ___
 72
   65
 73
    4
 40
7.619999999999999
 49
4.7625
 74
    0
 49
-0.9525
 74
    0
 49
0.9525
 74
    0
 49
-0.9525
 74
    0
  0
LTYPE
  5
48
330
5
100
AcDbSymbolTableRecord
100
AcDbLinetypeTableRecord
  2
CENTER2
 70
    0
  3
Center (.5x) ___ _ ___ _ ___ _ ___ _ ___ _ ___
 72
   65
 73
    4
 40
28.575
 49
19.05
 74
    0
 49
-3.175
 74
    0
 49
3.175
 74
    0
 49
-3.175
 74
    0
  0
LTYPE
  5
49
330
5
100
AcDbSymbolTableRecord
100
AcDbLinetypeTableRecord
  2
CENTERX2
 70
    0
  3
Center (2x) ________  __  ________  __  _____
 72
   65
 73
    4
 40
101.6
 49
63.5
 74
    0
 49
-12.7
 74
    0
 49
12.7
 74
    0
 49
-12.7
 74
    0
  0
ENDTAB
  0
TABLE
  2
LAYER
  5
2
330
0
100
AcDbSymbolTable
 70
    1
  0
LAYER
  5
10
330
2
100
AcDbSymbolTableRecord
100
AcDbLayerTableRecord
  2
0
 70
    0
 62
    7
  6
CONTINUOUS
370
    0
390
F
  0
LAYER
  5
4A
330
2
100
AcDbSymbolTableRecord
100
AcDbLayerTableRecord
  2
BigRedButton
 70
    0
 62
    1
  6
CONTINUOUS
370
    0
390
F
  0
LAYER
  5
4B
330
2
100
AcDbSymbolTableRecord
100
AcDbLayerTableRecord
  2
Breakers
 70
    0
 62
    5
  6
CONTINUOUS
370
    0
390
F
  0
LAYER
  5
4C
330
2
100
AcDbSymbolTableRecord
100
AcDbLayerTableRecord
  2
Busbar
 70
    0
 62
    7
  6
CONTINUOUS
370
   50
390
F
  0
LAYER
  5
4D
330
2
100
AcDbSymbolTableRecord
100
AcDbLayerTableRecord
  2
Junction
 70
    0
 62
    7
  6
CONTINUOUS
370
    0
390
F
  0
LAYER
  5
4E
330
2
100
AcDbSymbolTableRecord
100
AcDbLayerTableRecord
  2
Motors
 70
    0
 62
    6
  6
CONTINUOUS
370
    0
390
F
  0
LAYER
  5
4F
330
2
100
AcDbSymbolTableRecord
100
AcDbLayerTableRecord
  2
Regulators
 70
    0
 62
    8
  6
CONTINUOUS
370
    0
390
F
  0
LAYER
  5
50
330
2
100
AcDbSymbolTableRecord
100
AcDbLayerTableRecord
  2
Relays
 70
    0
 62
    5
  6
CONTINUOUS
370
    0
390
F
  0
LAYER
  5
51
330
2
100
AcDbSymbolTableRecord
100
AcDbLayerTableRecord
  2
Sensors
 70
    0
 62
    6
  6
CONTINUOUS
370
    0
390
F
  0
LAYER
  5
52
330
2
100
AcDbSymbolTableRecord
100
AcDbLayerTableRecord
  2
SoC
 70
    0
 62
   96
420
32768
  6
CONTINUOUS
370
    0
390
F
  0
LAYER
  5
53
330
2
100
AcDbSymbolTableRecord
100
AcDbLayerTableRecord
  2
Sources
 70
    0
 62
    1
  6
CONTINUOUS
370
    0
390
F
  0
LAYER
  5
54
330
2
100
AcDbSymbolTableRecord
100
AcDbLayerTableRecord
  2
Wires
 70
    0
 62
    7
  6
CONTINUOUS
370
    0
390
F
  0
ENDTAB
  0
TABLE
  2
STYLE
  5
3
330
0
100
AcDbSymbolTable
 70
    3
  0
STYLE
  5
55
330
2
100
AcDbSymbolTableRecord
100
AcDbTextStyleTableRecord
  2
standard
 70
    0
 40
0
 41
1
 50
0
 71
    0
 42
1
  3
standard
  4

  0
STYLE
  5
56
330
2
100
AcDbSymbolTableRecord
100
AcDbTextStyleTableRecord
  2
iso
 70
    0
 40
0
 41
1
 50
0
 71
    0
 42
1
  3
iso
  4

  0
ENDTAB
  0
TABLE
  2
VIEW
  5
6
330
0
100
AcDbSymbolTable
 70
    0
  0
ENDTAB
  0
TABLE
  2
UCS
  5
7
330
0
100
AcDbSymbolTable
 70
    0
  0
ENDTAB
  0
TABLE
  2
APPID
  5
9
330
0
100
AcDbSymbolTable
 70
    1
  0
APPID
  5
12
330
9
100
AcDbSymbolTableRecord
100
AcDbRegAppTableRecord
  2
ACAD
 70
    0
  0
APPID
  5
57
330
9
100
AcDbSymbolTableRecord
100
AcDbRegAppTableRecord
  2
LibreCad
 70
    0
  0
ENDTAB
  0
TABLE
  2
DIMSTYLE
  5
A
330
0
100
AcDbSymbolTable
 70
    1
100
AcDbDimStyleTable
 71
    1
  0
DIMSTYLE
105
58
330
A
100
AcDbSymbolTableRecord
100
AcDbDimStyleTableRecord
  2
Standard
 70
    0
 40
2.5
 41
2.5
 42
0.625
 43
0.38
 44
1.25
 45
0
 46
0
 47
0
 48
0
 49
1
140
2.5
141
0.09
142
0
143
25.4
144
1
145
0
146
1
147
0.625
148
0
 71
    0
 72
    0
 73
    0
 74
    1
 75
    0
 76
    0
 77
    0
 78
    8
 79
    0
170
    0
171
    2
172
    0
173
    0
174
    0
175
    0
176
    0
177
    0
178
    0
179
    0
271
    2
272
    4
273
    2
274
    2
275
    0
276
    0
277
    2
278
   44
279
    0
280
    0
281
    0
282
    0
283
    1
284
    0
285
    0
286
    0
288
    0
289
    3
340
standard
341

371
   -2
372
   -2
  0
ENDTAB
  0
TABLE
  2
BLOCK_RECORD
  5
1
330
0
100
AcDbSymbolTable
 70
    2
  0
BLOCK_RECORD
  5
1F
330
1
100
AcDbSymbolTableRecord
100
AcDbBlockTableRecord
  2
*Model_Space
 70
    0
280
    1
281
    0
  0
BLOCK_RECORD
  5
1E
330
1
100
AcDbSymbolTableRecord
100
AcDbBlockTableRecord
  2
*Paper_Space
 70
    0
280
    1
281
    0
  0
BLOCK_RECORD
  5
59
330
1
100
AcDbSymbolTableRecord
100
AcDbBlockTableRecord
  2
mk12
 70
    0
280
    1
281
    0
  0
ENDTAB
  0
ENDSEC
  0
SECTION
  2
BLOCKS
  0
BLOCK
  5
20
330
1F
100
AcDbEntity
  8
0
100
AcDbBlockBegin
  2
*Model_Space
 70
    0
 10
0
 20
0
 30
0
  3
*Model_Space
  1

  0
ENDBLK
  5
21
330
1F
100
AcDbEntity
  8
0
100
AcDbBlockEnd
  0
BLOCK
  5
1C
330
1B
100
AcDbEntity
  8
0
100
AcDbBlockBegin
  2
*Paper_Space
 70
    0
 10
0
 20
0
 30
0
  3
*Paper_Space
  1

  0
ENDBLK
  5
1D
330
1F
100
AcDbEntity
  8
0
100
AcDbBlockEnd
  0
BLOCK
  5
5A
330
59
100
AcDbEntity
  8
0
100
AcDbBlockBegin
  2
mk12
 70
    0
 10
0
 20
0
  3
mk12
  1

  0
LINE
  5
5C
100
AcDbEntity
  8
0
  6
CONTINUOUS
 62
    7
370
   18
100
AcDbLine
 10
5
 20
50
 11
0
 21
50
  0
LINE
  5
5D
100
AcDbEntity
  8
0
  6
CONTINUOUS
 62
    7
370
   18
100
AcDbLine
 10
5
 20
45
 11
0
 21
45
  0
LINE
  5
5E
100
AcDbEntity
  8
0
  6
CONTINUOUS
 62
    7
370
   18
100
AcDbLine
 10
5
 20
65
 11
20
 21
65
  0
LINE
  5
5F
100
AcDbEntity
  8
0
  6
CONTINUOUS
 62
    7
370
   18
100
AcDbLine
 10
5
 20
60
 11
0
 21
60
  0
LINE
  5
60
100
AcDbEntity
  8
0
  6
CONTINUOUS
 62
    7
370
   18
100
AcDbLine
 10
5
 20
-5
 11
20
 21
-5
  0
LINE
  5
61
100
AcDbEntity
  8
0
  6
CONTINUOUS
 62
    7
370
   18
100
AcDbLine
 10
5
 20
65
 11
5
 21
-5
  0
LINE
  5
62
100
AcDbEntity
  8
0
  6
CONTINUOUS
 62
    7
370
   18
100
AcDbLine
 10
10
 20
65
 11
10
 21
-5
  0
LINE
  5
63
100
AcDbEntity
  8
0
  6
CONTINUOUS
 62
    7
370
   18
100
AcDbLine
 10
20
 20
65
 11
20
 21
-5
  0
LINE
  5
64
100
AcDbEntity
  8
0
  6
CONTINUOUS
 62
    7
370
   18
100
AcDbLine
 10
20
 20
60
 11
25
 21
60
  0
CIRCLE
  5
65
100
AcDbEntity
  8
0
  6
CONTINUOUS
 62
    7
370
   18
100
AcDbCircle
 10
5
 20
60
 40
1
  0
LINE
  5
66
100
AcDbEntity
  8
0
  6
CONTINUOUS
 62
    7
370
   18
100
AcDbLine
 10
25
 20
55
 11
20
 21
55
  0
CIRCLE
  5
67
100
AcDbEntity
  8
0
  6
CONTINUOUS
 62
    7
370
   18
100
AcDbCircle
 10
20
 20
55
 40
1
  0
LINE
  5
68
100
AcDbEntity
  8
0
  6
CONTINUOUS
 62
    7
370
   18
100
AcDbLine
 10
0
 20
40
 11
5
 21
40
  0
LINE
  5
69
100
AcDbEntity
  8
0
  6
CONTINUOUS
 62
    7
370
   18
100
AcDbLine
 10
5
 20
30
 11
0
 21
30
  0
LINE
  5
6A
100
AcDbEntity
  8
0
  6
CONTINUOUS
 62
    7
370
   18
100
AcDbLine
 10
5
 20
35
 11
10
 21
35
  0
LINE
  5
6B
100
AcDbEntity
  8
0
  6
CONTINUOUS
 62
    7
370
   18
100
AcDbLine
 10
5
 20
25
 11
10
 21
25
  0
LINE
  5
6C
100
AcDbEntity
  8
0
  6
CONTINUOUS
 62
    7
370
   18
100
AcDbLine
 10
0
 20
20
 11
5
 21
20
  0
LINE
  5
6D
100
AcDbEntity
  8
0
  6
CONTINUOUS
 62
    7
370
   18
100
AcDbLine
 10
0
 20
15
 11
5
 21
15
  0
LINE
  5
6E
100
AcDbEntity
  8
0
  6
CONTINUOUS
 62
    7
370
   18
100
AcDbLine
 10
0
 20
10
 11
5
 21
10
  0
LINE
  5
6F
100
AcDbEntity
  8
0
  6
CONTINUOUS
 62
    7
370
   18
100
AcDbLine
 10
5
 20
5
 11
10
 21
5
  0
LINE
  5
70
100
AcDbEntity
  8
0
  6
CONTINUOUS
 62
    7
370
   18
100
AcDbLine
 10
0
 20
0
 11
5
 21
0
  0
LINE
  5
71
100
AcDbEntity
  8
0
  6
CONTINUOUS
 62
    7
370
   18
100
AcDbLine
 10
5
 20
55
 11
10
 21
55
  0
ENDBLK
  5
5B
330
59
100
AcDbEntity
  8
0
100
AcDbBlockEnd
  0
ENDSEC
  0
SECTION
  2
ENTITIES
  0
HATCH
  5
72
100
AcDbEntity
  8
Junction
  6
ByLayer
 62
  256
370
   -1
100
AcDbHatch
 10
0
 20
0
 30
0
210
0
220
0
230
1
  2
SOLID
 70
    1
 71
    0
 91
    1
 92
    0
 93
    1
 72
    2
 10
162
 20
87.49999999999999
 40
0.3000000000000007
 50
0
 51
360
 73
    1
 97
    0
 75
    0
 76
    1
 98
    0
  0
HATCH
  5
73
100
AcDbEntity
  8
Junction
  6
ByLayer
 62
  256
370
   -1
100
AcDbHatch
 10
0
 20
0
 30
0
210
0
220
0
230
1
  2
SOLID
 70
    1
 71
    0
 91
    1
 92
    0
 93
    1
 72
    2
 10
117
 20
82.49999999999999
 40
0.3000000000000007
 50
0
 51
360
 73
    1
 97
    0
 75
    0
 76
    1
 98
    0
  0
HATCH
  5
74
100
AcDbEntity
  8
Junction
  6
ByLayer
 62
  256
370
   -1
100
AcDbHatch
 10
0
 20
0
 30
0
210
0
220
0
230
1
  2
SOLID
 70
    1
 71
    0
 91
    1
 92
    0
 93
    1
 72
    2
 10
149
 20
89.49999999999999
 40
0.3000000000000007
 50
0
 51
360
 73
    1
 97
    0
 75
    0
 76
    1
 98
    0
  0
HATCH
  5
75
100
AcDbEntity
  8
Junction
  6
ByLayer
 62
  256
370
   -1
100
AcDbHatch
 10
0
 20
0
 30
0
210
0
220
0
230
1
  2
SOLID
 70
    1
 71
    0
 91
    1
 92
    0
 93
    1
 72
    2
 10
117
 20
95.49999999999999
 40
0.3000000000000007
 50
0
 51
360
 73
    1
 97
    0
 75
    0
 76
    1
 98
    0
  0
HATCH
  5
76
100
AcDbEntity
  8
Junction
  6
ByLayer
 62
  256
370
   -1
100
AcDbHatch
 10
0
 20
0
 30
0
210
0
220
0
230
1
  2
SOLID
 70
    1
 71
    0
 91
    1
 92
    0
 93
    1
 72
    2
 10
166
 20
89.5
 40
0.3000000000000007
 50
0
 51
360
 73
    1
 97
    0
 75
    0
 76
    1
 98
    0
  0
HATCH
  5
77
100
AcDbEntity
  8
Junction
  6
ByLayer
 62
  256
370
   -1
100
AcDbHatch
 10
0
 20
0
 30
0
210
0
220
0
230
1
  2
SOLID
 70
    1
 71
    0
 91
    1
 92
    0
 93
    1
 72
    2
 10
168
 20
138.5
 40
0.3000000000000007
 50
0
 51
360
 73
    1
 97
    0
 75
    0
 76
    1
 98
    0
  0
HATCH
  5
78
100
AcDbEntity
  8
Junction
  6
ByLayer
 62
  256
370
   -1
100
AcDbHatch
 10
0
 20
0
 30
0
210
0
220
0
230
1
  2
SOLID
 70
    1
 71
    0
 91
    1
 92
    0
 93
    1
 72
    2
 10
121
 20
105.5
 40
0.3000000000000007
 50
0
 51
360
 73
    1
 97
    0
 75
    0
 76
    1
 98
    0
  0
HATCH
  5
79
100
AcDbEntity
  8
Junction
  6
ByLayer
 62
  256
370
   -1
100
AcDbHatch
 10
0
 20
0
 30
0
210
0
220
0
230
1
  2
SOLID
 70
    1
 71
    0
 91
    1
 92
    0
 93
    1
 72
    2
 10
93
 20
82.5
 40
0.3000000000000007
 50
0
 51
360
 73
    1
 97
    0
 75
    0
 76
    1
 98
    0
  0
HATCH
  5
7A
100
AcDbEntity
  8
Junction
  6
ByLayer
 62
  256
370
   -1
100
AcDbHatch
 10
0
 20
0
 30
0
210
0
220
0
230
1
  2
SOLID
 70
    1
 71
    0
 91
    1
 92
    0
 93
    1
 72
    2
 10
117
 20
89.5
 40
0.3000000000000007
 50
0
 51
360
 73
    1
 97
    0
 75
    0
 76
    1
 98
    0
  0
HATCH
  5
7B
100
AcDbEntity
  8
Junction
  6
ByLayer
 62
  256
370
   -1
100
AcDbHatch
 10
0
 20
0
 30
0
210
0
220
0
230
1
  2
SOLID
 70
    1
 71
    0
 91
    1
 92
    0
 93
    1
 72
    2
 10
104
 20
68.5
 40
0.3000000000000007
 50
0
 51
360
 73
    1
 97
    0
 75
    0
 76
    1
 98
    0
  0
HATCH
  5
7C
100
AcDbEntity
  8
Junction
  6
ByLayer
 62
  256
370
   -1
100
AcDbHatch
 10
0
 20
0
 30
0
210
0
220
0
230
1
  2
SOLID
 70
    1
 71
    0
 91
    1
 92
    0
 93
    1
 72
    2
 10
131
 20
89.5
 40
0.3000000000000007
 50
0
 51
360
 73
    1
 97
    0
 75
    0
 76
    1
 98
    0
  0
CIRCLE
  5
7D
100
AcDbEntity
  8
Sources
  6
ByLayer
 62
  256
370
   -1
100
AcDbCircle
 10
144
 20
89.5
 40
3
  0
LINE
  5
7E
100
AcDbEntity
  8
Wires
  6
ByLayer
 62
  256
370
   -1
100
AcDbLine
 10
147
 20
89.5
 11
152
 21
89.5
  0
LINE
  5
7F
100
AcDbEntity
  8
Sources
  6
ByLayer
 62
  256
370
   -1
100
AcDbLine
 10
142
 20
89.5
 11
143
 21
89.5
  0
LINE
  5
80
100
AcDbEntity
  8
Sources
  6
ByLayer
 62
  256
370
   -1
100
AcDbLine
 10
145
 20
89.5
 11
146
 21
89.5
  0
LINE
  5
81
100
AcDbEntity
  8
Sources
  6
ByLayer
 62
  256
370
   -1
100
AcDbLine
 10
145.5
 20
89
 11
145.5
 21
90
  0
CIRCLE
  5
82
100
AcDbEntity
  8
Sources
  6
ByLayer
 62
  256
370
   -1
100
AcDbCircle
 10
112
 20
89.5
 40
3
  0
LINE
  5
83
100
AcDbEntity
  8
Sources
  6
ByLayer
 62
  256
370
   -1
100
AcDbLine
 10
110
 20
89.5
 11
111
 21
89.5
  0
LINE
  5
84
100
AcDbEntity
  8
Sources
  6
ByLayer
 62
  256
370
   -1
100
AcDbLine
 10
113
 20
89.5
 11
114
 21
89.5
  0
LINE
  5
85
100
AcDbEntity
  8
Sources
  6
ByLayer
 62
  256
370
   -1
100
AcDbLine
 10
113.5
 20
89
 11
113.5
 21
90
  0
LINE
  5
86
100
AcDbEntity
  8
Relays
  6
ByLayer
 62
  256
370
   -1
100
AcDbLine
 10
122
 20
89.5
 11
126
 21
90.5
  0
LINE
  5
87
100
AcDbEntity
  8
Relays
  6
ByLayer
 62
  256
370
   -1
100
AcDbLine
 10
126
 20
89.5
 11
128
 21
89.5
  0
LINE
  5
88
100
AcDbEntity
  8
Relays
  6
ByLayer
 62
  256
370
   -1
100
AcDbLine
 10
122
 20
89.5
 11
120
 21
89.5
  0
LINE
  5
89
100
AcDbEntity
  8
Wires
  6
ByLayer
 62
  256
370
   -1
100
AcDbLine
 10
115
 20
89.5
 11
120
 21
89.5
  0
LINE
  5
8A
100
AcDbEntity
  8
Busbar
  6
ByLayer
 62
  256
370
   -1
100
AcDbLine
 10
173
 20
90.5
 11
173
 21
88.5
  0
LINE
  5
8B
100
AcDbEntity
  8
Busbar
  6
ByLayer
 62
  256
370
   -1
100
AcDbLine
 10
173
 20
89.5
 11
175
 21
89.5
  0
LINE
  5
8C
100
AcDbEntity
  8
Busbar
  6
ByLayer
 62
  256
370
   -1
100
AcDbLine
 10
175
 20
89.5
 11
175
 21
90.5
  0
LINE
  5
8D
100
AcDbEntity
  8
Busbar
  6
ByLayer
 62
  256
370
   -1
100
AcDbLine
 10
175
 20
90.5
 11
175
 21
88.5
  0
LINE
  5
8E
100
AcDbEntity
  8
Busbar
  6
ByLayer
 62
  256
370
   -1
100
AcDbLine
 10
175
 20
89.5
 11
177
 21
89.5
  0
LINE
  5
8F
100
AcDbEntity
  8
Busbar
  6
ByLayer
 62
  256
370
   -1
100
AcDbLine
 10
177
 20
89.5
 11
177
 21
90.5
  0
LINE
  5
90
100
AcDbEntity
  8
Busbar
  6
ByLayer
 62
  256
370
   -1
100
AcDbLine
 10
177
 20
90.5
 11
177
 21
88.5
  0
LINE
  5
91
100
AcDbEntity
  8
Busbar
  6
ByLayer
 62
  256
370
   -1
100
AcDbLine
 10
177
 20
89.5
 11
179
 21
89.5
  0
LINE
  5
92
100
AcDbEntity
  8
Busbar
  6
ByLayer
 62
  256
370
   -1
100
AcDbLine
 10
179
 20
89.5
 11
179
 21
90.5
  0
LINE
  5
93
100
AcDbEntity
  8
Busbar
  6
ByLayer
 62
  256
370
   -1
100
AcDbLine
 10
179
 20
90.5
 11
179
 21
88.5
  0
LINE
  5
94
100
AcDbEntity
  8
Busbar
  6
ByLayer
 62
  256
370
   -1
100
AcDbLine
 10
179
 20
89.5
 11
181
 21
89.5
  0
LINE
  5
95
100
AcDbEntity
  8
Busbar
  6
ByLayer
 62
  256
370
   -1
100
AcDbLine
 10
181
 20
89.5
 11
181
 21
90.5
  0
LINE
  5
96
100
AcDbEntity
  8
Busbar
  6
ByLayer
 62
  256
370
   -1
100
AcDbLine
 10
181
 20
90.5
 11
181
 21
88.5
  0
LINE
  5
97
100
AcDbEntity
  8
Busbar
  6
ByLayer
 62
  256
370
   -1
100
AcDbLine
 10
181
 20
89.5
 11
183
 21
89.5
  0
LINE
  5
98
100
AcDbEntity
  8
Busbar
  6
ByLayer
 62
  256
370
   -1
100
AcDbLine
 10
183
 20
89.5
 11
183
 21
90.5
  0
LINE
  5
99
100
AcDbEntity
  8
Busbar
  6
ByLayer
 62
  256
370
   -1
100
AcDbLine
 10
183
 20
90.5
 11
183
 21
88.5
  0
LWPOLYLINE
  5
9A
100
AcDbEntity
  8
Regulators
  6
ByLayer
 62
  256
370
   -1
100
AcDbPolyline
 90
    4
 70
    1
 43
0
 10
182
 20
117.5
 10
193
 20
117.5
 10
193
 20
108.5
 10
182
 20
108.5
  0
LINE
  5
9B
100
AcDbEntity
  8
Wires
  6
ByLayer
 62
  256
370
   -1
100
AcDbLine
 10
187
 20
100.5
 11
193
 21
100.5
  0
LINE
  5
9C
100
AcDbEntity
  8
Wires
  6
ByLayer
 62
  256
370
   -1
100
AcDbLine
 10
188
 20
99.5
 11
192
 21
99.5
  0
LINE
  5
9D
100
AcDbEntity
  8
Wires
  6
ByLayer
 62
  256
370
   -1
100
AcDbLine
 10
191
 20
98.5
 11
189
 21
98.5
  0
LINE
  5
9E
100
AcDbEntity
  8
Wires
  6
ByLayer
 62
  256
370
   -1
100
AcDbLine
 10
190
 20
108.5
 11
190
 21
100.5
  0
LWPOLYLINE
  5
9F
100
AcDbEntity
  8
Motors
  6
ByLayer
 62
  256
370
   -1
100
AcDbPolyline
 90
    4
 70
    1
 43
0
 10
191
 20
133.5
 10
198
 20
133.5
 10
198
 20
129.5
 10
191
 20
129.5
  0
LWPOLYLINE
  5
A0
100
AcDbEntity
  8
Motors
  6
ByLayer
 62
  256
370
   -1
100
AcDbPolyline
 90
    4
 70
    1
 43
0
 10
191
 20
126.5
 10
198
 20
126.5
 10
198
 20
122.5
 10
191
 20
122.5
  0
LWPOLYLINE
  5
A1
100
AcDbEntity
  8
Motors
  6
ByLayer
 62
  256
370
   -1
100
AcDbPolyline
 90
    4
 70
    1
 43
0
 10
198
 20
132.5
 10
199
 20
132.5
 10
199
 20
130.5
 10
198
 20
130.5
  0
LWPOLYLINE
  5
A2
100
AcDbEntity
  8
Motors
  6
ByLayer
 62
  256
370
   -1
100
AcDbPolyline
 90
    4
 70
    1
 43
0
 10
198
 20
125.5
 10
199
 20
125.5
 10
199
 20
123.5
 10
198
 20
123.5
  0
LINE
  5
A3
100
AcDbEntity
  8
Motors
  6
ByLayer
 62
  256
370
   -1
100
AcDbLine
 10
199
 20
132
 11
201.9
 21
132
  0
LINE
  5
A4
100
AcDbEntity
  8
Motors
  6
ByLayer
 62
  256
370
   -1
100
AcDbLine
 10
199
 20
131
 11
201.9
 21
131
  0
SPLINE
  5
A5
100
AcDbEntity
  8
Motors
  6
ByLayer
 62
  256
370
   -1
100
AcDbSpline
210
0
220
0
230
0
 70
    8
 71
    3
 72
    9
 73
    5
 74
    0
 42
1e-07
 43
1e-07
 40
0
 40
0
 40
0
 40
0
 40
0.5
 40
1
 40
1
 40
1
 40
1
 10
201.9
 20
131
 30
0
 10
201.5
 20
131.3
 30
0
 10
202.4
 20
131.5
 30
0
 10
201.9
 20
132
 30
0
 10
201.9
 20
132
 30
0
  0
LINE
  5
A6
100
AcDbEntity
  8
Motors
  6
ByLayer
 62
  256
370
   -1
100
AcDbLine
 10
199
 20
125
 11
201.9
 21
125
  0
LINE
  5
A7
100
AcDbEntity
  8
Motors
  6
ByLayer
 62
  256
370
   -1
100
AcDbLine
 10
199
 20
124
 11
201.9
 21
124
  0
SPLINE
  5
A8
100
AcDbEntity
  8
Motors
  6
ByLayer
 62
  256
370
   -1
100
AcDbSpline
210
0
220
0
230
0
 70
    8
 71
    3
 72
    9
 73
    5
 74
    0
 42
1e-07
 43
1e-07
 40
0
 40
0
 40
0
 40
0
 40
0.5
 40
1
 40
1
 40
1
 40
1
 10
201.9
 20
124
 30
0
 10
201.5
 20
124.3
 30
0
 10
202.4
 20
124.5
 30
0
 10
201.9
 20
125
 30
0
 10
201.9
 20
125
 30
0
  0
LINE
  5
A9
100
AcDbEntity
  8
Wires
  6
ByLayer
 62
  256
370
   -1
100
AcDbLine
 10
186
 20
130.5
 11
186
 21
117.5
  0
LINE
  5
AA
100
AcDbEntity
  8
Wires
  6
ByLayer
 62
  256
370
   -1
100
AcDbLine
 10
185
 20
132.5
 11
185
 21
117.5
  0
MTEXT
  5
AB
100
AcDbEntity
  8
Motors
  6
ByLayer
 62
  256
370
   -1
100
AcDbMText
 10
194.0833333333334
 20
122
 30
0
 40
1.5
 41
5.500000000000069
 71
    2
 72
    1
  1
Auger
  7
iso
210
0
220
0
230
1
 50
0
 73
    2
 44
1
  0
MTEXT
  5
AC
100
AcDbEntity
  8
Regulators
  6
ByLayer
 62
  256
370
   -1
100
AcDbMText
 10
187.4166666666666
 20
115
 30
0
 40
1.5
 41
9.666666666666829
 71
    2
 72
    1
  1
AmpFlow\PController
  7
iso
210
0
220
0
230
1
 50
0
 73
    2
 44
1
  0
LINE
  5
AD
100
AcDbEntity
  8
Motors
  6
ByLayer
 62
  256
370
   -1
100
AcDbLine
 10
201.9
 20
131
 11
201.9
 21
131.43
  0
LINE
  5
AE
100
AcDbEntity
  8
Motors
  6
ByLayer
 62
  256
370
   -1
100
AcDbLine
 10
201.9
 20
124
 11
201.9
 21
124.43
  0
LINE
  5
AF
100
AcDbEntity
  8
Wires
  6
ByLayer
 62
  256
370
   -1
100
AcDbLine
 10
188.5
 20
123.5
 11
188.5
 21
117.5
  0
LINE
  5
B0
100
AcDbEntity
  8
Wires
  6
ByLayer
 62
  256
370
   -1
100
AcDbLine
 10
187.5
 20
125.5
 11
187.5
 21
117.5
  0
LWPOLYLINE
  5
B1
100
AcDbEntity
  8
Motors
  6
ByLayer
 62
  256
370
   -1
100
AcDbPolyline
 90
    4
 70
    1
 43
0
 10
191
 20
133.5
 10
190
 20
133.5
 10
190
 20
129.5
 10
191
 20
129.5
  0
LWPOLYLINE
  5
B2
100
AcDbEntity
  8
Motors
  6
ByLayer
 62
  256
370
   -1
100
AcDbPolyline
 90
    4
 70
    1
 43
0
 10
191
 20
126.5
 10
190
 20
126.5
 10
190
 20
122.5
 10
191
 20
122.5
  0
LINE
  5
B3
100
AcDbEntity
  8
Wires
  6
ByLayer
 62
  256
370
   -1
100
AcDbLine
 10
190
 20
123.5
 11
188.5
 21
123.5
  0
LINE
  5
B4
100
AcDbEntity
  8
Wires
  6
ByLayer
 62
  256
370
   -1
100
AcDbLine
 10
190
 20
125.5
 11
187.5
 21
125.5
  0
LINE
  5
B5
100
AcDbEntity
  8
Wires
  6
ByLayer
 62
  256
370
   -1
100
AcDbLine
 10
190
 20
130.5
 11
186
 21
130.5
  0
LINE
  5
B6
100
AcDbEntity
  8
Wires
  6
ByLayer
 62
  256
370
   -1
100
AcDbLine
 10
190
 20
132.5
 11
185
 21
132.5
  0
MTEXT
  5
B7
100
AcDbEntity
  8
Motors
  6
ByLayer
 62
  256
370
   -1
100
AcDbMText
 10
196.1666666666667
 20
135.9
 30
0
 40
1.5
 41
8.666666666666829
 71
    2
 72
    1
  1
Conveyor
  7
iso
210
0
220
0
230
1
 50
0
 73
    2
 44
1
  0
LINE
  5
B8
100
AcDbEntity
  8
Wires
  6
ByLayer
 62
  256
370
   -1
100
AcDbLine
 10
185.5
 20
102.5
 11
185.5
 21
108.5
  0
LINE
  5
B9
100
AcDbEntity
  8
Wires
  6
ByLayer
 62
  256
370
   -1
100
AcDbLine
 10
182
 20
89.5
 11
182
 21
102.5
  0
LINE
  5
BA
100
AcDbEntity
  8
Wires
  6
ByLayer
 62
  256
370
   -1
100
AcDbLine
 10
182
 20
102.5
 11
185.5
 21
102.5
  0
MTEXT
  5
BB
100
AcDbEntity
  8
Busbar
  6
ByLayer
 62
  256
370
    0
100
AcDbMText
 10
191
 20
90.5
 30
0
 40
1.5
 41
12.62500077143103
 71
    2
 72
    1
  1
~30V Busbar
  7
iso
210
0
220
0
230
1
 50
0
 73
    2
 44
1
  0
LINE
  5
BC
100
AcDbEntity
  8
Busbar
  6
ByLayer
 62
  256
370
   -1
100
AcDbLine
 10
130
 20
101.5
 11
132
 21
101.5
  0
LINE
  5
BD
100
AcDbEntity
  8
Busbar
  6
ByLayer
 62
  256
370
   -1
100
AcDbLine
 10
131
 20
101.5
 11
131
 21
103.5
  0
LINE
  5
BE
100
AcDbEntity
  8
Busbar
  6
ByLayer
 62
  256
370
   -1
100
AcDbLine
 10
130
 20
103.5
 11
132
 21
103.5
  0
LINE
  5
BF
100
AcDbEntity
  8
Busbar
  6
ByLayer
 62
  256
370
   -1
100
AcDbLine
 10
131
 20
103.5
 11
131
 21
105.5
  0
LINE
  5
C0
100
AcDbEntity
  8
Busbar
  6
ByLayer
 62
  256
370
   -1
100
AcDbLine
 10
130
 20
105.5
 11
132
 21
105.5
  0
LINE
  5
C1
100
AcDbEntity
  8
Busbar
  6
ByLayer
 62
  256
370
   -1
100
AcDbLine
 10
131
 20
105.5
 11
131
 21
107.5
  0
LINE
  5
C2
100
AcDbEntity
  8
Busbar
  6
ByLayer
 62
  256
370
   -1
100
AcDbLine
 10
130
 20
107.5
 11
132
 21
107.5
  0
LINE
  5
C3
100
AcDbEntity
  8
Busbar
  6
ByLayer
 62
  256
370
   -1
100
AcDbLine
 10
131
 20
107.5
 11
131
 21
109.5
  0
LINE
  5
C4
100
AcDbEntity
  8
Busbar
  6
ByLayer
 62
  256
370
   -1
100
AcDbLine
 10
130
 20
109.5
 11
132
 21
109.5
  0
LINE
  5
C5
100
AcDbEntity
  8
Busbar
  6
ByLayer
 62
  256
370
   -1
100
AcDbLine
 10
131
 20
109.5
 11
131
 21
111.5
  0
LINE
  5
C6
100
AcDbEntity
  8
Busbar
  6
ByLayer
 62
  256
370
   -1
100
AcDbLine
 10
130
 20
111.5
 11
132
 21
111.5
  0
CIRCLE
  5
C7
100
AcDbEntity
  8
Junction
  6
ByLayer
 62
  256
370
   -1
100
AcDbCircle
 10
131
 20
89.5
 40
0.3000000000000007
  0
MTEXT
  5
C8
100
AcDbEntity
  8
Busbar
  6
ByLayer
 62
  256
370
    0
100
AcDbMText
 10
138.2708333333333
 20
106
 30
0
 40
1.5
 41
10.12500000000016
 71
    2
 72
    1
  1
~15V Bat.1
  7
iso
210
0
220
0
230
1
 50
0
 73
    2
 44
1
  0
MTEXT
  5
C9
100
AcDbEntity
  8
Relays
  6
ByLayer
 62
  256
370
   -1
100
AcDbMText
 10
121
 20
85.5
 30
0
 40
1.5
 41
5.00000000000007
 71
    1
 72
    1
  1
Relay
  7
iso
210
0
220
0
230
1
 50
0
 73
    2
 44
1
  0
LWPOLYLINE
  5
CA
100
AcDbEntity
  8
Relays
  6
ByLayer
 62
  256
370
   -1
100
AcDbPolyline
 90
    4
 70
    1
 43
0
 10
120
 20
86.5
 10
128
 20
86.5
 10
128
 20
91.5
 10
120
 20
91.5
  0
SPLINE
  5
CB
100
AcDbEntity
  8
Relays
  6
ByLayer
 62
  256
370
   -1
100
AcDbSpline
210
0
220
0
230
0
 70
    8
 71
    3
 72
   14
 73
   10
 74
    0
 42
1e-07
 43
1e-07
 40
0
 40
0
 40
0
 40
0
 40
0.1428571428571428
 40
0.2857142857142857
 40
0.4285714285714285
 40
0.5714285714285714
 40
0.7142857142857142
 40
0.8571428571428571
 40
1
 40
1
 40
1
 40
1
 10
121
 20
87.5
 30
0
 10
121
 20
88.5
 30
0
 10
122
 20
89.5
 30
0
 10
122
 20
87.5
 30
0
 10
123
 20
87.5
 30
0
 10
124
 20
89.5
 30
0
 10
125
 20
87.5
 30
0
 10
126
 20
87.5
 30
0
 10
126
 20
89.5
 30
0
 10
127
 20
87.5
 30
0
  0
LINE
  5
CC
100
AcDbEntity
  8
Relays
  6
ByLayer
 62
  256
370
   -1
100
AcDbLine
 10
121
 20
87.5
 11
120
 21
87.5
  0
LINE
  5
CD
100
AcDbEntity
  8
Relays
  6
ByLayer
 62
  256
370
   -1
100
AcDbLine
 10
127
 20
87.5
 11
128
 21
87.5
  0
LINE
  5
CE
100
AcDbEntity
  8
Relays
  6
ByLayer
 62
  256
370
   -1
100
AcDbLine
 10
154
 20
89.5
 11
158
 21
90.5
  0
LINE
  5
CF
100
AcDbEntity
  8
Relays
  6
ByLayer
 62
  256
370
   -1
100
AcDbLine
 10
158
 20
89.5
 11
160
 21
89.5
  0
LINE
  5
D0
100
AcDbEntity
  8
Relays
  6
ByLayer
 62
  256
370
   -1
100
AcDbLine
 10
154
 20
89.5
 11
152
 21
89.5
  0
LWPOLYLINE
  5
D1
100
AcDbEntity
  8
Relays
  6
ByLayer
 62
  256
370
   -1
100
AcDbPolyline
 90
    4
 70
    1
 43
0
 10
152
 20
86.5
 10
160
 20
86.5
 10
160
 20
91.5
 10
152
 20
91.5
  0
SPLINE
  5
D2
100
AcDbEntity
  8
Relays
  6
ByLayer
 62
  256
370
   -1
100
AcDbSpline
210
0
220
0
230
0
 70
    8
 71
    3
 72
   14
 73
   10
 74
    0
 42
1e-07
 43
1e-07
 40
0
 40
0
 40
0
 40
0
 40
0.1428571428571428
 40
0.2857142857142857
 40
0.4285714285714285
 40
0.5714285714285714
 40
0.7142857142857142
 40
0.8571428571428571
 40
1
 40
1
 40
1
 40
1
 10
153
 20
87.5
 30
0
 10
153
 20
88.5
 30
0
 10
154
 20
89.5
 30
0
 10
154
 20
87.5
 30
0
 10
155
 20
87.5
 30
0
 10
156
 20
89.5
 30
0
 10
157
 20
87.5
 30
0
 10
158
 20
87.5
 30
0
 10
158
 20
89.5
 30
0
 10
159
 20
87.5
 30
0
  0
LINE
  5
D3
100
AcDbEntity
  8
Relays
  6
ByLayer
 62
  256
370
   -1
100
AcDbLine
 10
153
 20
87.5
 11
152
 21
87.5
  0
LINE
  5
D4
100
AcDbEntity
  8
Relays
  6
ByLayer
 62
  256
370
   -1
100
AcDbLine
 10
159
 20
87.5
 11
160
 21
87.5
  0
LINE
  5
D5
100
AcDbEntity
  8
Wires
  6
ByLayer
 62
  256
370
   -1
100
AcDbLine
 10
128
 20
89.5
 11
133
 21
89.5
  0
LINE
  5
D6
100
AcDbEntity
  8
Wires
  6
ByLayer
 62
  256
370
   -1
100
AcDbLine
 10
141
 20
89.5
 11
140
 21
89.5
  0
LINE
  5
D7
100
AcDbEntity
  8
Sensors
  6
ByLayer
 62
  256
370
   -1
100
AcDbLine
 10
133
 20
91.5
 11
140
 21
91.5
  0
LINE
  5
D8
100
AcDbEntity
  8
Sensors
  6
ByLayer
 62
  256
370
   -1
100
AcDbLine
 10
140
 20
91.5
 11
140
 21
87.5
  0
LINE
  5
D9
100
AcDbEntity
  8
Sensors
  6
ByLayer
 62
  256
370
   -1
100
AcDbLine
 10
140
 20
87.5
 11
133
 21
87.5
  0
LINE
  5
DA
100
AcDbEntity
  8
Sensors
  6
ByLayer
 62
  256
370
   -1
100
AcDbLine
 10
133
 20
87.5
 11
133
 21
91.5
  0
MTEXT
  5
DB
100
AcDbEntity
  8
Sensors
  6
ByLayer
 62
  256
370
   -1
100
AcDbMText
 10
136.5222222222222
 20
90.8
 30
0
 40
1
 41
4.666666666666713
 71
    2
 72
    1
  1
Power\PMonitor
  7
iso
210
0
220
0
230
1
 50
0
 73
    2
 44
1
  0
LINE
  5
DC
100
AcDbEntity
  8
Wires
  6
ByLayer
 62
  256
370
   -1
100
AcDbLine
 10
90
 20
69.5
 11
96
 21
69.5
  0
LINE
  5
DD
100
AcDbEntity
  8
Wires
  6
ByLayer
 62
  256
370
   -1
100
AcDbLine
 10
91
 20
68.5
 11
95
 21
68.5
  0
LINE
  5
DE
100
AcDbEntity
  8
Wires
  6
ByLayer
 62
  256
370
   -1
100
AcDbLine
 10
94
 20
67.5
 11
92
 21
67.5
  0
LINE
  5
DF
100
AcDbEntity
  8
Wires
  6
ByLayer
 62
  256
370
   -1
100
AcDbLine
 10
93
 20
89.5
 11
93
 21
69.5
  0
LINE
  5
E0
100
AcDbEntity
  8
Wires
  6
ByLayer
 62
  256
370
   -1
100
AcDbLine
 10
104
 20
89.5
 11
109
 21
89.5
  0
LINE
  5
E1
100
AcDbEntity
  8
Sensors
  6
ByLayer
 62
  256
370
   -1
100
AcDbLine
 10
97
 20
91.5
 11
104
 21
91.5
  0
LINE
  5
E2
100
AcDbEntity
  8
Sensors
  6
ByLayer
 62
  256
370
   -1
100
AcDbLine
 10
104
 20
91.5
 11
104
 21
87.5
  0
LINE
  5
E3
100
AcDbEntity
  8
Sensors
  6
ByLayer
 62
  256
370
   -1
100
AcDbLine
 10
104
 20
87.5
 11
97
 21
87.5
  0
LINE
  5
E4
100
AcDbEntity
  8
Sensors
  6
ByLayer
 62
  256
370
   -1
100
AcDbLine
 10
97
 20
87.5
 11
97
 21
91.5
  0
LINE
  5
E5
100
AcDbEntity
  8
Wires
  6
ByLayer
 62
  256
370
   -1
100
AcDbLine
 10
93
 20
89.5
 11
97
 21
89.5
  0
CIRCLE
  5
E6
100
AcDbEntity
  8
Junction
  6
ByLayer
 62
  256
370
   -1
100
AcDbCircle
 10
104
 20
68.5
 40
0.3000000000000007
  0
LINE
  5
E7
100
AcDbEntity
  8
Wires
  6
ByLayer
 62
  256
370
   -1
100
AcDbLine
 10
120
 20
87.5
 11
117
 21
87.5
  0
LINE
  5
E8
100
AcDbEntity
  8
Wires
  6
ByLayer
 62
  256
370
   -1
100
AcDbLine
 10
117
 20
87.5
 11
117
 21
82.5
  0
LINE
  5
E9
100
AcDbEntity
  8
Wires
  6
ByLayer
 62
  256
370
   -1
100
AcDbLine
 10
149
 20
74.5
 11
149
 21
87.5
  0
LINE
  5
EA
100
AcDbEntity
  8
Wires
  6
ByLayer
 62
  256
370
   -1
100
AcDbLine
 10
149
 20
87.5
 11
152
 21
87.5
  0
LINE
  5
EB
100
AcDbEntity
  8
Wires
  6
ByLayer
 62
  256
370
   -1
100
AcDbLine
 10
142
 20
74.5
 11
149
 21
74.5
  0
LINE
  5
EC
100
AcDbEntity
  8
BigRedButton
  6
ByLayer
 62
  256
370
   -1
100
AcDbLine
 10
134
 20
74.5
 11
135
 21
74.5
  0
LINE
  5
ED
100
AcDbEntity
  8
BigRedButton
  6
ByLayer
 62
  256
370
   -1
100
AcDbLine
 10
142
 20
74.5
 11
141
 21
74.5
  0
CIRCLE
  5
EE
100
AcDbEntity
  8
BigRedButton
  6
ByLayer
 62
  256
370
   -1
100
AcDbCircle
 10
135
 20
74.5
 40
0.2236067977499784
  0
CIRCLE
  5
EF
100
AcDbEntity
  8
BigRedButton
  6
ByLayer
 62
  256
370
   -1
100
AcDbCircle
 10
141
 20
74.5
 40
0.2236067977499784
  0
LINE
  5
F0
100
AcDbEntity
  8
BigRedButton
  6
ByLayer
 62
  256
370
   -1
100
AcDbLine
 10
135
 20
75.5
 11
141
 21
75.5
  0
LINE
  5
F1
100
AcDbEntity
  8
BigRedButton
  6
ByLayer
 62
  256
370
   -1
100
AcDbLine
 10
135
 20
75.5
 11
135
 21
76.5
  0
LINE
  5
F2
100
AcDbEntity
  8
BigRedButton
  6
ByLayer
 62
  256
370
   -1
100
AcDbLine
 10
135
 20
76.5
 11
141
 21
76.5
  0
LINE
  5
F3
100
AcDbEntity
  8
BigRedButton
  6
ByLayer
 62
  256
370
   -1
100
AcDbLine
 10
141
 20
76.5
 11
141
 21
75.5
  0
ARC
  5
F4
100
AcDbEntity
  8
BigRedButton
  6
ByLayer
 62
  256
370
   -1
100
AcDbCircle
 10
147.5
 20
76.50000000000001
 40
8.5
100
AcDbArc
 50
155.4335518103724
 51
180
  0
ARC
  5
F5
100
AcDbEntity
  8
BigRedButton
  6
ByLayer
 62
  256
370
   -1
100
AcDbCircle
 10
128.5
 20
76.5000000000001
 40
8.5
100
AcDbArc
 50
359.9999999999994
 51
24.56644818962701
  0
LINE
  5
F6
100
AcDbEntity
  8
BigRedButton
  6
ByLayer
 62
  256
370
   -1
100
AcDbLine
 10
136
 20
80.5
 11
140
 21
80.5
  0
MTEXT
  5
F7
100
AcDbEntity
  8
BigRedButton
  6
ByLayer
 62
  256
370
   -1
100
AcDbMText
 10
138.1666666666667
 20
73
 30
0
 40
1.5
 41
10.00000000000021
 71
    2
 72
    1
  1
Emergency\PButton
  7
iso
210
0
220
0
230
1
 50
0
 73
    2
 44
1
  0
LINE
  5
F8
100
AcDbEntity
  8
Wires
  6
ByLayer
 62
  256
370
   -1
100
AcDbLine
 10
117
 20
82.5
 11
93
 21
82.5
  0
LINE
  5
F9
100
AcDbEntity
  8
Wires
  6
ByLayer
 62
  256
370
   -1
100
AcDbLine
 10
160
 20
87.5
 11
162
 21
87.5
  0
LINE
  5
FA
100
AcDbEntity
  8
Wires
  6
ByLayer
 62
  256
370
   -1
100
AcDbLine
 10
162
 20
87.5
 11
162
 21
95.5
  0
LINE
  5
FB
100
AcDbEntity
  8
Wires
  6
ByLayer
 62
  256
370
   -1
100
AcDbLine
 10
162
 20
95.5
 11
117
 21
95.5
  0
LINE
  5
FC
100
AcDbEntity
  8
Wires
  6
ByLayer
 62
  256
370
   -1
100
AcDbLine
 10
117
 20
95.5
 11
117
 21
89.5
  0
CIRCLE
  5
FD
100
AcDbEntity
  8
Junction
  6
ByLayer
 62
  256
370
   -1
100
AcDbCircle
 10
117
 20
89.5
 40
0.3000000000000007
  0
MTEXT
  5
FE
100
AcDbEntity
  8
Sensors
  6
ByLayer
 62
  256
370
   -1
100
AcDbMText
 10
100.5222222222222
 20
90.8
 30
0
 40
1
 41
4.666666666666713
 71
    2
 72
    1
  1
Power\PMonitor
  7
iso
210
0
220
0
230
1
 50
0
 73
    2
 44
1
  0
MTEXT
  5
FF
100
AcDbEntity
  8
Regulators
  6
ByLayer
 62
  256
370
   -1
100
AcDbMText
 10
113
 20
113.5
 30
0
 40
1.5
 41
9.833333015330108
 71
    2
 72
    1
  1
VictorSPX
  7
iso
210
0
220
0
230
1
 50
0
 73
    2
 44
1
  0
LWPOLYLINE
  5
100
100
AcDbEntity
  8
Regulators
  6
ByLayer
 62
  256
370
   -1
100
AcDbPolyline
 90
    4
 70
    1
 43
0
 10
107
 20
114.5
 10
119
 20
114.5
 10
119
 20
110.5
 10
107
 20
110.5
  0
MTEXT
  5
101
100
AcDbEntity
  8
Regulators
  6
ByLayer
 62
  256
370
   -1
100
AcDbMText
 10
113
 20
107.5
 30
0
 40
1.5
 41
9.833333015330108
 71
    2
 72
    1
  1
VictorSPX
  7
iso
210
0
220
0
230
1
 50
0
 73
    2
 44
1
  0
LWPOLYLINE
  5
102
100
AcDbEntity
  8
Regulators
  6
ByLayer
 62
  256
370
   -1
100
AcDbPolyline
 90
    4
 70
    1
 43
0
 10
107
 20
108.5
 10
119
 20
108.5
 10
119
 20
104.5
 10
107
 20
104.5
  0
MTEXT
  5
103
100
AcDbEntity
  8
Regulators
  6
ByLayer
 62
  256
370
   -1
100
AcDbMText
 10
113
 20
119.5
 30
0
 40
1.5
 41
9.833333015330108
 71
    2
 72
    1
  1
VictorSPX
  7
iso
210
0
220
0
230
1
 50
0
 73
    2
 44
1
  0
LWPOLYLINE
  5
104
100
AcDbEntity
  8
Regulators
  6
ByLayer
 62
  256
370
   -1
100
AcDbPolyline
 90
    4
 70
    1
 43
0
 10
107
 20
120.5
 10
119
 20
120.5
 10
119
 20
116.5
 10
107
 20
116.5
  0
MTEXT
  5
105
100
AcDbEntity
  8
Regulators
  6
ByLayer
 62
  256
370
   -1
100
AcDbMText
 10
113
 20
125.5
 30
0
 40
1.5
 41
9.833333015330108
 71
    2
 72
    1
  1
VictorSPX
  7
iso
210
0
220
0
230
1
 50
0
 73
    2
 44
1
  0
LWPOLYLINE
  5
106
100
AcDbEntity
  8
Regulators
  6
ByLayer
 62
  256
370
   -1
100
AcDbPolyline
 90
    4
 70
    1
 43
0
 10
107
 20
126.5
 10
119
 20
126.5
 10
119
 20
122.5
 10
107
 20
122.5
  0
LINE
  5
107
100
AcDbEntity
  8
Wires
  6
ByLayer
 62
  256
370
   -1
100
AcDbLine
 10
131
 20
102.5
 11
123
 21
102.5
  0
LINE
  5
108
100
AcDbEntity
  8
Wires
  6
ByLayer
 62
  256
370
   -1
100
AcDbLine
 10
123
 20
102.5
 11
123
 21
107.5
  0
LINE
  5
109
100
AcDbEntity
  8
Wires
  6
ByLayer
 62
  256
370
   -1
100
AcDbLine
 10
123
 20
107.5
 11
119
 21
107.5
  0
LINE
  5
10A
100
AcDbEntity
  8
Wires
  6
ByLayer
 62
  256
370
   -1
100
AcDbLine
 10
119
 20
105.5
 11
121
 21
105.5
  0
LINE
  5
10B
100
AcDbEntity
  8
Wires
  6
ByLayer
 62
  256
370
   -1
100
AcDbLine
 10
118
 20
100.5
 11
124
 21
100.5
  0
LINE
  5
10C
100
AcDbEntity
  8
Wires
  6
ByLayer
 62
  256
370
   -1
100
AcDbLine
 10
119
 20
99.5
 11
123
 21
99.5
  0
LINE
  5
10D
100
AcDbEntity
  8
Wires
  6
ByLayer
 62
  256
370
   -1
100
AcDbLine
 10
122
 20
98.5
 11
120
 21
98.5
  0
LINE
  5
10E
100
AcDbEntity
  8
Wires
  6
ByLayer
 62
  256
370
   -1
100
AcDbLine
 10
121
 20
105.5
 11
121
 21
100.5
  0
CIRCLE
  5
10F
100
AcDbEntity
  8
Junction
  6
ByLayer
 62
  256
370
   -1
100
AcDbCircle
 10
93
 20
82.5
 40
0.3000000000000007
  0
LINE
  5
110
100
AcDbEntity
  8
Wires
  6
ByLayer
 62
  256
370
   -1
100
AcDbLine
 10
119
 20
111.5
 11
121
 21
111.5
  0
LINE
  5
111
100
AcDbEntity
  8
Wires
  6
ByLayer
 62
  256
370
   -1
100
AcDbLine
 10
121
 20
111.5
 11
121
 21
105.5
  0
LINE
  5
112
100
AcDbEntity
  8
Wires
  6
ByLayer
 62
  256
370
   -1
100
AcDbLine
 10
124
 20
104.5
 11
124
 21
113.5
  0
LINE
  5
113
100
AcDbEntity
  8
Wires
  6
ByLayer
 62
  256
370
   -1
100
AcDbLine
 10
124
 20
113.5
 11
119
 21
113.5
  0
LINE
  5
114
100
AcDbEntity
  8
Wires
  6
ByLayer
 62
  256
370
   -1
100
AcDbLine
 10
131
 20
104.5
 11
124
 21
104.5
  0
CIRCLE
  5
115
100
AcDbEntity
  8
Junction
  6
ByLayer
 62
  256
370
   -1
100
AcDbCircle
 10
121
 20
105.5
 40
0.3000000000000007
  0
LINE
  5
116
100
AcDbEntity
  8
Wires
  6
ByLayer
 62
  256
370
   -1
100
AcDbLine
 10
131
 20
106.5
 11
125
 21
106.5
  0
LINE
  5
117
100
AcDbEntity
  8
Wires
  6
ByLayer
 62
  256
370
   -1
100
AcDbLine
 10
125
 20
106.5
 11
125
 21
117.5
  0
LINE
  5
118
100
AcDbEntity
  8
Wires
  6
ByLayer
 62
  256
370
   -1
100
AcDbLine
 10
125
 20
117.5
 11
119
 21
117.5
  0
LINE
  5
119
100
AcDbEntity
  8
Wires
  6
ByLayer
 62
  256
370
   -1
100
AcDbLine
 10
131
 20
108.5
 11
126
 21
108.5
  0
LINE
  5
11A
100
AcDbEntity
  8
Wires
  6
ByLayer
 62
  256
370
   -1
100
AcDbLine
 10
126
 20
108.5
 11
126
 21
123.5
  0
LINE
  5
11B
100
AcDbEntity
  8
Wires
  6
ByLayer
 62
  256
370
   -1
100
AcDbLine
 10
126
 20
123.5
 11
119
 21
123.5
  0
LINE
  5
11C
100
AcDbEntity
  8
Wires
  6
ByLayer
 62
  256
370
   -1
100
AcDbLine
 10
151
 20
102.5
 11
151
 21
119.5
  0
LINE
  5
11D
100
AcDbEntity
  8
Wires
  6
ByLayer
 62
  256
370
   -1
100
AcDbLine
 10
151
 20
119.5
 11
119
 21
119.5
  0
LINE
  5
11E
100
AcDbEntity
  8
Wires
  6
ByLayer
 62
  256
370
   -1
100
AcDbLine
 10
153
 20
104.5
 11
153
 21
125.5
  0
LINE
  5
11F
100
AcDbEntity
  8
Wires
  6
ByLayer
 62
  256
370
   -1
100
AcDbLine
 10
153
 20
125.5
 11
119
 21
125.5
  0
MTEXT
  5
120
100
AcDbEntity
  8
Regulators
  6
ByLayer
 62
  256
370
   -1
100
AcDbMText
 10
118
 20
104.2
 30
0
 40
0.8
 41
1.866666666666766
 71
    2
 72
    1
  1
GND
  7
iso
210
0
220
0
230
1
 50
0
 73
    2
 44
1
  0
MTEXT
  5
121
100
AcDbEntity
  8
Regulators
  6
ByLayer
 62
  256
370
   -1
100
AcDbMText
 10
118
 20
110.2
 30
0
 40
0.8
 41
1.866666666666766
 71
    2
 72
    1
  1
GND
  7
iso
210
0
220
0
230
1
 50
0
 73
    2
 44
1
  0
MTEXT
  5
122
100
AcDbEntity
  8
Regulators
  6
ByLayer
 62
  256
370
   -1
100
AcDbMText
 10
118
 20
116.2
 30
0
 40
0.8
 41
1.866666666666766
 71
    2
 72
    1
  1
GND
  7
iso
210
0
220
0
230
1
 50
0
 73
    2
 44
1
  0
MTEXT
  5
123
100
AcDbEntity
  8
Regulators
  6
ByLayer
 62
  256
370
   -1
100
AcDbMText
 10
118
 20
122.2
 30
0
 40
0.8
 41
1.866666666666766
 71
    2
 72
    1
  1
GND
  7
iso
210
0
220
0
230
1
 50
0
 73
    2
 44
1
  0
LINE
  5
124
100
AcDbEntity
  8
Motors
  6
ByLayer
 62
  256
370
   -1
100
AcDbLine
 10
100
 20
126.5
 11
100
 21
122.5
  0
LINE
  5
125
100
AcDbEntity
  8
Motors
  6
ByLayer
 62
  256
370
   -1
100
AcDbLine
 10
100
 20
122.5
 11
98
 21
122.5
  0
LINE
  5
126
100
AcDbEntity
  8
Motors
  6
ByLayer
 62
  256
370
   -1
100
AcDbLine
 10
98
 20
122.5
 11
98
 21
126.5
  0
LINE
  5
127
100
AcDbEntity
  8
Motors
  6
ByLayer
 62
  256
370
   -1
100
AcDbLine
 10
98
 20
126.5
 11
100
 21
126.5
  0
LINE
  5
128
100
AcDbEntity
  8
Motors
  6
ByLayer
 62
  256
370
   -1
100
AcDbLine
 10
98
 20
122.5
 11
93
 21
122.5
  0
LINE
  5
129
100
AcDbEntity
  8
Motors
  6
ByLayer
 62
  256
370
   -1
100
AcDbLine
 10
93
 20
122.5
 11
93
 21
126.5
  0
LINE
  5
12A
100
AcDbEntity
  8
Motors
  6
ByLayer
 62
  256
370
   -1
100
AcDbLine
 10
93
 20
126.5
 11
98
 21
126.5
  0
LINE
  5
12B
100
AcDbEntity
  8
Motors
  6
ByLayer
 62
  256
370
   -1
100
AcDbLine
 10
100
 20
120.5
 11
100
 21
116.5
  0
LINE
  5
12C
100
AcDbEntity
  8
Motors
  6
ByLayer
 62
  256
370
   -1
100
AcDbLine
 10
100
 20
116.5
 11
98
 21
116.5
  0
LINE
  5
12D
100
AcDbEntity
  8
Motors
  6
ByLayer
 62
  256
370
   -1
100
AcDbLine
 10
98
 20
116.5
 11
98
 21
120.5
  0
LINE
  5
12E
100
AcDbEntity
  8
Motors
  6
ByLayer
 62
  256
370
   -1
100
AcDbLine
 10
98
 20
120.5
 11
100
 21
120.5
  0
LINE
  5
12F
100
AcDbEntity
  8
Motors
  6
ByLayer
 62
  256
370
   -1
100
AcDbLine
 10
98
 20
116.5
 11
93
 21
116.5
  0
LINE
  5
130
100
AcDbEntity
  8
Motors
  6
ByLayer
 62
  256
370
   -1
100
AcDbLine
 10
93
 20
116.5
 11
93
 21
120.5
  0
LINE
  5
131
100
AcDbEntity
  8
Motors
  6
ByLayer
 62
  256
370
   -1
100
AcDbLine
 10
93
 20
120.5
 11
98
 21
120.5
  0
LINE
  5
132
100
AcDbEntity
  8
Motors
  6
ByLayer
 62
  256
370
   -1
100
AcDbLine
 10
100
 20
110.5
 11
100
 21
114.5
  0
LINE
  5
133
100
AcDbEntity
  8
Motors
  6
ByLayer
 62
  256
370
   -1
100
AcDbLine
 10
100
 20
114.5
 11
98
 21
114.5
  0
LINE
  5
134
100
AcDbEntity
  8
Motors
  6
ByLayer
 62
  256
370
   -1
100
AcDbLine
 10
98
 20
114.5
 11
98
 21
110.5
  0
LINE
  5
135
100
AcDbEntity
  8
Motors
  6
ByLayer
 62
  256
370
   -1
100
AcDbLine
 10
98
 20
110.5
 11
100
 21
110.5
  0
LINE
  5
136
100
AcDbEntity
  8
Motors
  6
ByLayer
 62
  256
370
   -1
100
AcDbLine
 10
98
 20
110.5
 11
93
 21
110.5
  0
LINE
  5
137
100
AcDbEntity
  8
Motors
  6
ByLayer
 62
  256
370
   -1
100
AcDbLine
 10
93
 20
110.5
 11
93
 21
114.5
  0
LINE
  5
138
100
AcDbEntity
  8
Motors
  6
ByLayer
 62
  256
370
   -1
100
AcDbLine
 10
93
 20
114.5
 11
98
 21
114.5
  0
LINE
  5
139
100
AcDbEntity
  8
Motors
  6
ByLayer
 62
  256
370
   -1
100
AcDbLine
 10
100
 20
104.5
 11
100
 21
108.5
  0
LINE
  5
13A
100
AcDbEntity
  8
Motors
  6
ByLayer
 62
  256
370
   -1
100
AcDbLine
 10
100
 20
108.5
 11
98
 21
108.5
  0
LINE
  5
13B
100
AcDbEntity
  8
Motors
  6
ByLayer
 62
  256
370
   -1
100
AcDbLine
 10
98
 20
108.5
 11
98
 21
104.5
  0
LINE
  5
13C
100
AcDbEntity
  8
Motors
  6
ByLayer
 62
  256
370
   -1
100
AcDbLine
 10
98
 20
104.5
 11
100
 21
104.5
  0
LINE
  5
13D
100
AcDbEntity
  8
Motors
  6
ByLayer
 62
  256
370
   -1
100
AcDbLine
 10
98
 20
104.5
 11
93
 21
104.5
  0
LINE
  5
13E
100
AcDbEntity
  8
Motors
  6
ByLayer
 62
  256
370
   -1
100
AcDbLine
 10
93
 20
104.5
 11
93
 21
108.5
  0
LINE
  5
13F
100
AcDbEntity
  8
Motors
  6
ByLayer
 62
  256
370
   -1
100
AcDbLine
 10
93
 20
108.5
 11
98
 21
108.5
  0
LINE
  5
140
100
AcDbEntity
  8
Wires
  6
ByLayer
 62
  256
370
   -1
100
AcDbLine
 10
107
 20
125.5
 11
100
 21
125.5
  0
LINE
  5
141
100
AcDbEntity
  8
Wires
  6
ByLayer
 62
  256
370
   -1
100
AcDbLine
 10
107
 20
123.5
 11
100
 21
123.5
  0
LINE
  5
142
100
AcDbEntity
  8
Wires
  6
ByLayer
 62
  256
370
   -1
100
AcDbLine
 10
107
 20
119.5
 11
100
 21
119.5
  0
LINE
  5
143
100
AcDbEntity
  8
Wires
  6
ByLayer
 62
  256
370
   -1
100
AcDbLine
 10
107
 20
117.5
 11
100
 21
117.5
  0
LINE
  5
144
100
AcDbEntity
  8
Wires
  6
ByLayer
 62
  256
370
   -1
100
AcDbLine
 10
107
 20
113.5
 11
100
 21
113.5
  0
LINE
  5
145
100
AcDbEntity
  8
Wires
  6
ByLayer
 62
  256
370
   -1
100
AcDbLine
 10
107
 20
111.5
 11
100
 21
111.5
  0
LINE
  5
146
100
AcDbEntity
  8
Wires
  6
ByLayer
 62
  256
370
   -1
100
AcDbLine
 10
107
 20
107.5
 11
100
 21
107.5
  0
LINE
  5
147
100
AcDbEntity
  8
Wires
  6
ByLayer
 62
  256
370
   -1
100
AcDbLine
 10
107
 20
105.5
 11
100
 21
105.5
  0
LINE
  5
148
100
AcDbEntity
  8
Motors
  6
ByLayer
 62
  256
370
   -1
100
AcDbLine
 10
93
 20
125.5
 11
92
 21
125.5
  0
LINE
  5
149
100
AcDbEntity
  8
Motors
  6
ByLayer
 62
  256
370
   -1
100
AcDbLine
 10
92
 20
125.5
 11
92
 21
123.5
  0
LINE
  5
14A
100
AcDbEntity
  8
Motors
  6
ByLayer
 62
  256
370
   -1
100
AcDbLine
 10
92
 20
123.5
 11
93
 21
123.5
  0
LINE
  5
14B
100
AcDbEntity
  8
Motors
  6
ByLayer
 62
  256
370
   -1
100
AcDbLine
 10
93
 20
119.5
 11
92
 21
119.5
  0
LINE
  5
14C
100
AcDbEntity
  8
Motors
  6
ByLayer
 62
  256
370
   -1
100
AcDbLine
 10
92
 20
119.5
 11
92
 21
117.5
  0
LINE
  5
14D
100
AcDbEntity
  8
Motors
  6
ByLayer
 62
  256
370
   -1
100
AcDbLine
 10
92
 20
117.5
 11
93
 21
117.5
  0
LINE
  5
14E
100
AcDbEntity
  8
Motors
  6
ByLayer
 62
  256
370
   -1
100
AcDbLine
 10
93
 20
113.5
 11
92
 21
113.5
  0
LINE
  5
14F
100
AcDbEntity
  8
Motors
  6
ByLayer
 62
  256
370
   -1
100
AcDbLine
 10
92
 20
113.5
 11
92
 21
111.5
  0
LINE
  5
150
100
AcDbEntity
  8
Motors
  6
ByLayer
 62
  256
370
   -1
100
AcDbLine
 10
92
 20
111.5
 11
93
 21
111.5
  0
LINE
  5
151
100
AcDbEntity
  8
Motors
  6
ByLayer
 62
  256
370
   -1
100
AcDbLine
 10
93
 20
107.5
 11
92
 21
107.5
  0
LINE
  5
152
100
AcDbEntity
  8
Motors
  6
ByLayer
 62
  256
370
   -1
100
AcDbLine
 10
92
 20
107.5
 11
92
 21
105.5
  0
LINE
  5
153
100
AcDbEntity
  8
Motors
  6
ByLayer
 62
  256
370
   -1
100
AcDbLine
 10
92
 20
105.5
 11
93
 21
105.5
  0
LINE
  5
154
100
AcDbEntity
  8
Motors
  6
ByLayer
 62
  256
370
   -1
100
AcDbLine
 10
92
 20
124
 11
89
 21
124
  0
LINE
  5
155
100
AcDbEntity
  8
Motors
  6
ByLayer
 62
  256
370
   -1
100
AcDbLine
 10
89
 20
124
 11
89
 21
125
  0
LINE
  5
156
100
AcDbEntity
  8
Motors
  6
ByLayer
 62
  256
370
   -1
100
AcDbLine
 10
89
 20
125
 11
92
 21
125
  0
LINE
  5
157
100
AcDbEntity
  8
Motors
  6
ByLayer
 62
  256
370
   -1
100
AcDbLine
 10
92
 20
118
 11
89
 21
118
  0
LINE
  5
158
100
AcDbEntity
  8
Motors
  6
ByLayer
 62
  256
370
   -1
100
AcDbLine
 10
89
 20
118
 11
89
 21
119
  0
LINE
  5
159
100
AcDbEntity
  8
Motors
  6
ByLayer
 62
  256
370
   -1
100
AcDbLine
 10
89
 20
119
 11
92
 21
119
  0
LINE
  5
15A
100
AcDbEntity
  8
Motors
  6
ByLayer
 62
  256
370
   -1
100
AcDbLine
 10
92
 20
112
 11
89
 21
112
  0
LINE
  5
15B
100
AcDbEntity
  8
Motors
  6
ByLayer
 62
  256
370
   -1
100
AcDbLine
 10
89
 20
112
 11
89
 21
113
  0
LINE
  5
15C
100
AcDbEntity
  8
Motors
  6
ByLayer
 62
  256
370
   -1
100
AcDbLine
 10
89
 20
113
 11
92
 21
113
  0
LINE
  5
15D
100
AcDbEntity
  8
Motors
  6
ByLayer
 62
  256
370
   -1
100
AcDbLine
 10
92
 20
106
 11
89
 21
106
  0
LINE
  5
15E
100
AcDbEntity
  8
Motors
  6
ByLayer
 62
  256
370
   -1
100
AcDbLine
 10
89
 20
106
 11
89
 21
107
  0
LINE
  5
15F
100
AcDbEntity
  8
Motors
  6
ByLayer
 62
  256
370
   -1
100
AcDbLine
 10
89
 20
107
 11
92
 21
107
  0
MTEXT
  5
160
100
AcDbEntity
  8
Motors
  6
ByLayer
 62
  256
370
   -1
100
AcDbMText
 10
95.59999999999999
 20
125.1
 30
0
 40
1.2
 41
1.466666666666667
 71
    2
 72
    1
  1
FL
  7
iso
210
0
220
0
230
1
 50
0
 73
    2
 44
1
  0
MTEXT
  5
161
100
AcDbEntity
  8
Motors
  6
ByLayer
 62
  256
370
   -1
100
AcDbMText
 10
95.59999999999999
 20
119
 30
0
 40
1.2
 41
1.6
 71
    2
 72
    1
  1
FR
  7
iso
210
0
220
0
230
1
 50
0
 73
    2
 44
1
  0
MTEXT
  5
162
100
AcDbEntity
  8
Motors
  6
ByLayer
 62
  256
370
   -1
100
AcDbMText
 10
95.59999999999999
 20
113
 30
0
 40
1.2
 41
1.6
 71
    2
 72
    1
  1
BL
  7
iso
210
0
220
0
230
1
 50
0
 73
    2
 44
1
  0
MTEXT
  5
163
100
AcDbEntity
  8
Motors
  6
ByLayer
 62
  256
370
   -1
100
AcDbMText
 10
95.59999999999999
 20
107
 30
0
 40
1.2
 41
1.733333333333333
 71
    2
 72
    1
  1
BR
  7
iso
210
0
220
0
230
1
 50
0
 73
    2
 44
1
  0
LINE
  5
164
100
AcDbEntity
  8
Wires
  6
ByLayer
 62
  256
370
   -1
100
AcDbLine
 10
118
 20
139.5
 11
118
 21
133.5
  0
LINE
  5
165
100
AcDbEntity
  8
Wires
  6
ByLayer
 62
  256
370
   -1
100
AcDbLine
 10
118
 20
133.5
 11
111
 21
133.5
  0
LINE
  5
166
100
AcDbEntity
  8
Wires
  6
ByLayer
 62
  256
370
   -1
100
AcDbLine
 10
111
 20
133.5
 11
111
 21
126.5
  0
LINE
  5
167
100
AcDbEntity
  8
Wires
  6
ByLayer
 62
  256
370
   -1
100
AcDbLine
 10
119
 20
139.5
 11
119
 21
132.5
  0
LINE
  5
168
100
AcDbEntity
  8
Wires
  6
ByLayer
 62
  256
370
   -1
100
AcDbLine
 10
119
 20
132.5
 11
112
 21
132.5
  0
LINE
  5
169
100
AcDbEntity
  8
Wires
  6
ByLayer
 62
  256
370
   -1
100
AcDbLine
 10
112
 20
132.5
 11
112
 21
126.5
  0
LINE
  5
16A
100
AcDbEntity
  8
Wires
  6
ByLayer
 62
  256
370
   -1
100
AcDbLine
 10
120
 20
139.5
 11
120
 21
131.5
  0
LINE
  5
16B
100
AcDbEntity
  8
Wires
  6
ByLayer
 62
  256
370
   -1
100
AcDbLine
 10
120
 20
131.5
 11
113
 21
131.5
  0
LINE
  5
16C
100
AcDbEntity
  8
Wires
  6
ByLayer
 62
  256
370
   -1
100
AcDbLine
 10
113
 20
131.5
 11
113
 21
126.5
  0
LINE
  5
16D
100
AcDbEntity
  8
Wires
  6
ByLayer
 62
  256
370
   -1
100
AcDbLine
 10
121
 20
139.5
 11
121
 21
130.5
  0
LINE
  5
16E
100
AcDbEntity
  8
Wires
  6
ByLayer
 62
  256
370
   -1
100
AcDbLine
 10
121
 20
130.5
 11
114
 21
130.5
  0
LINE
  5
16F
100
AcDbEntity
  8
Wires
  6
ByLayer
 62
  256
370
   -1
100
AcDbLine
 10
114
 20
130.5
 11
114
 21
126.5
  0
LINE
  5
170
100
AcDbEntity
  8
Wires
  6
ByLayer
 62
  256
370
   -1
100
AcDbLine
 10
112
 20
122.5
 11
112
 21
120.5
  0
LINE
  5
171
100
AcDbEntity
  8
Wires
  6
ByLayer
 62
  256
370
   -1
100
AcDbLine
 10
113
 20
122.5
 11
113
 21
120.5
  0
LINE
  5
172
100
AcDbEntity
  8
Wires
  6
ByLayer
 62
  256
370
   -1
100
AcDbLine
 10
114
 20
122.5
 11
114
 21
120.5
  0
LINE
  5
173
100
AcDbEntity
  8
Wires
  6
ByLayer
 62
  256
370
   -1
100
AcDbLine
 10
113
 20
116.5
 11
113
 21
114.5
  0
LINE
  5
174
100
AcDbEntity
  8
Wires
  6
ByLayer
 62
  256
370
   -1
100
AcDbLine
 10
114
 20
116.5
 11
114
 21
114.5
  0
LINE
  5
175
100
AcDbEntity
  8
Wires
  6
ByLayer
 62
  256
370
   -1
100
AcDbLine
 10
114
 20
110.5
 11
114
 21
108.5
  0
LINE
  5
176
100
AcDbEntity
  8
Wires
  6
ByLayer
 62
  256
370
   -1
100
AcDbLine
 10
99.7
 20
108.5
 11
99.7
 21
110.5
  0
LINE
  5
177
100
AcDbEntity
  8
Wires
  6
ByLayer
 62
  256
370
   -1
100
AcDbLine
 10
99.7
 20
114.5
 11
99.7
 21
116.5
  0
LINE
  5
178
100
AcDbEntity
  8
Wires
  6
ByLayer
 62
  256
370
   -1
100
AcDbLine
 10
99.3
 20
114.5
 11
99.3
 21
116.5
  0
LINE
  5
179
100
AcDbEntity
  8
Wires
  6
ByLayer
 62
  256
370
   -1
100
AcDbLine
 10
99.7
 20
120.5
 11
99.7
 21
122.5
  0
LINE
  5
17A
100
AcDbEntity
  8
Wires
  6
ByLayer
 62
  256
370
   -1
100
AcDbLine
 10
99.3
 20
120.5
 11
99.3
 21
122.5
  0
LINE
  5
17B
100
AcDbEntity
  8
Wires
  6
ByLayer
 62
  256
370
   -1
100
AcDbLine
 10
98.90000000000001
 20
120.5
 11
98.90000000000001
 21
122.5
  0
LINE
  5
17C
100
AcDbEntity
  8
Wires
  6
ByLayer
 62
  256
370
   -1
100
AcDbLine
 10
99.7
 20
126.5
 11
99.7
 21
140.5
  0
LINE
  5
17D
100
AcDbEntity
  8
Wires
  6
ByLayer
 62
  256
370
   -1
100
AcDbLine
 10
99.7
 20
140.5
 11
116
 21
140.5
  0
LINE
  5
17E
100
AcDbEntity
  8
Wires
  6
ByLayer
 62
  256
370
   -1
100
AcDbLine
 10
98.5
 20
126.5
 11
98.5
 21
143.5
  0
LINE
  5
17F
100
AcDbEntity
  8
Wires
  6
ByLayer
 62
  256
370
   -1
100
AcDbLine
 10
98.90000000000001
 20
126.5
 11
98.90000000000001
 21
142.5
  0
LINE
  5
180
100
AcDbEntity
  8
Wires
  6
ByLayer
 62
  256
370
   -1
100
AcDbLine
 10
99.3
 20
126.5
 11
99.3
 21
141.5
  0
LINE
  5
181
100
AcDbEntity
  8
Wires
  6
ByLayer
 62
  256
370
   -1
100
AcDbLine
 10
99.3
 20
141.5
 11
116
 21
141.5
  0
LINE
  5
182
100
AcDbEntity
  8
Wires
  6
ByLayer
 62
  256
370
   -1
100
AcDbLine
 10
98.5
 20
143.5
 11
116
 21
143.5
  0
LINE
  5
183
100
AcDbEntity
  8
Wires
  6
ByLayer
 62
  256
370
   -1
100
AcDbLine
 10
98.90000000000001
 20
142.5
 11
116
 21
142.5
  0
MTEXT
  5
184
100
AcDbEntity
  8
SoC
  6
ByLayer
 62
  256
370
   -1
100
AcDbMText
 10
119.8
 20
140.3
 30
0
 40
0.5
 41
4.15277792892037
 71
    2
 72
    1
  1
PWM Signals
  7
iso
210
0
220
0
230
1
 50
0
 73
    2
 44
1
  0
MTEXT
  5
185
100
AcDbEntity
  8
SoC
  6
ByLayer
 62
  256
370
   -1
100
AcDbMText
 10
121.4166666666667
 20
144
 30
0
 40
1.5
 41
3.5
 71
    2
 72
    1
  1
BBB
  7
iso
210
0
220
0
230
1
 50
0
 73
    2
 44
1
  0
MTEXT
  5
186
100
AcDbEntity
  8
SoC
  6
ByLayer
 62
  256
370
   -1
100
AcDbMText
 10
116.7
 20
142.2874998714282
 30
0
 40
0.5
 41
5.041666923810311
 71
    2
 72
    1
  1
Quad. Encoders
  7
iso
210
0
220
0
230
1
 50
270
 73
    2
 44
1
  0
MTEXT
  5
187
100
AcDbEntity
  8
Wires
  6
ByLayer
 62
  256
370
   -1
100
AcDbMText
 10
110.319444701588
 20
139.5
 30
0
 40
1
 41
9.75000051428729
 71
    2
 72
    1
  1
Encoder Inputs
  7
iso
210
0
220
0
230
1
 50
0
 73
    2
 44
1
  0
MTEXT
  5
188
100
AcDbEntity
  8
Relays
  6
ByLayer
 62
  256
370
   -1
100
AcDbMText
 10
153
 20
85.5
 30
0
 40
1.5
 41
5.00000000000007
 71
    1
 72
    1
  1
BIG\PRelay
  7
iso
210
0
220
0
230
1
 50
0
 73
    2
 44
1
  0
MTEXT
  5
189
100
AcDbEntity
  8
Relays
  6
ByLayer
 62
  256
370
   -1
100
AcDbMText
 10
124
 20
93
 30
0
 40
1
 41
9.777777777777935
 71
    2
 72
    1
  1
100A, 32V max
  7
iso
210
0
220
0
230
1
 50
0
 73
    2
 44
1
  0
LINE
  5
18A
100
AcDbEntity
  8
Wires
  6
ByLayer
 62
  256
370
   -1
100
AcDbLine
 10
190.7
 20
126.5
 11
190.7
 21
129.5
  0
LINE
  5
18B
100
AcDbEntity
  8
Wires
  6
ByLayer
 62
  256
370
   -1
100
AcDbLine
 10
190.3
 20
159.5
 11
190.3
 21
133.5
  0
LINE
  5
18C
100
AcDbEntity
  8
Wires
  6
ByLayer
 62
  256
370
   -1
100
AcDbLine
 10
190.7
 20
133.5
 11
190.7
 21
160.5
  0
LINE
  5
18D
100
AcDbEntity
  8
Wires
  6
ByLayer
 62
  256
370
   -1
100
AcDbLine
 10
190.7
 20
160.5
 11
111
 21
160.5
  0
LINE
  5
18E
100
AcDbEntity
  8
Wires
  6
ByLayer
 62
  256
370
   -1
100
AcDbLine
 10
111
 20
144.5
 11
116
 21
144.5
  0
LINE
  5
18F
100
AcDbEntity
  8
Wires
  6
ByLayer
 62
  256
370
   -1
100
AcDbLine
 10
111
 20
160.5
 11
111
 21
144.5
  0
LINE
  5
190
100
AcDbEntity
  8
Wires
  6
ByLayer
 62
  256
370
   -1
100
AcDbLine
 10
116
 20
145.5
 11
112
 21
145.5
  0
LINE
  5
191
100
AcDbEntity
  8
Wires
  6
ByLayer
 62
  256
370
   -1
100
AcDbLine
 10
112
 20
145.5
 11
112
 21
159.5
  0
LINE
  5
192
100
AcDbEntity
  8
Wires
  6
ByLayer
 62
  256
370
   -1
100
AcDbLine
 10
112
 20
159.5
 11
190
 21
159.5
  0
LINE
  5
193
100
AcDbEntity
  8
Wires
  6
ByLayer
 62
  256
370
   -1
100
AcDbLine
 10
190
 20
159.5
 11
190.3
 21
159.5
  0
LINE
  5
194
100
AcDbEntity
  8
Busbar
  6
ByLayer
 62
  256
370
   -1
100
AcDbLine
 10
158
 20
101.5
 11
160
 21
101.5
  0
LINE
  5
195
100
AcDbEntity
  8
Busbar
  6
ByLayer
 62
  256
370
   -1
100
AcDbLine
 10
159
 20
101.5
 11
159
 21
103.5
  0
LINE
  5
196
100
AcDbEntity
  8
Busbar
  6
ByLayer
 62
  256
370
   -1
100
AcDbLine
 10
158
 20
103.5
 11
160
 21
103.5
  0
LINE
  5
197
100
AcDbEntity
  8
Busbar
  6
ByLayer
 62
  256
370
   -1
100
AcDbLine
 10
159
 20
103.5
 11
159
 21
105.5
  0
LINE
  5
198
100
AcDbEntity
  8
Busbar
  6
ByLayer
 62
  256
370
   -1
100
AcDbLine
 10
158
 20
105.5
 11
160
 21
105.5
  0
LINE
  5
199
100
AcDbEntity
  8
Busbar
  6
ByLayer
 62
  256
370
   -1
100
AcDbLine
 10
159
 20
105.5
 11
159
 21
107.5
  0
LINE
  5
19A
100
AcDbEntity
  8
Busbar
  6
ByLayer
 62
  256
370
   -1
100
AcDbLine
 10
158
 20
107.5
 11
160
 21
107.5
  0
LINE
  5
19B
100
AcDbEntity
  8
Busbar
  6
ByLayer
 62
  256
370
   -1
100
AcDbLine
 10
159
 20
107.5
 11
159
 21
109.5
  0
LINE
  5
19C
100
AcDbEntity
  8
Busbar
  6
ByLayer
 62
  256
370
   -1
100
AcDbLine
 10
158
 20
109.5
 11
160
 21
109.5
  0
LINE
  5
19D
100
AcDbEntity
  8
Busbar
  6
ByLayer
 62
  256
370
   -1
100
AcDbLine
 10
159
 20
109.5
 11
159
 21
111.5
  0
LINE
  5
19E
100
AcDbEntity
  8
Busbar
  6
ByLayer
 62
  256
370
   -1
100
AcDbLine
 10
158
 20
111.5
 11
160
 21
111.5
  0
LINE
  5
19F
100
AcDbEntity
  8
Wires
  6
ByLayer
 62
  256
370
   -1
100
AcDbLine
 10
159
 20
104.5
 11
153
 21
104.5
  0
LINE
  5
1A0
100
AcDbEntity
  8
Wires
  6
ByLayer
 62
  256
370
   -1
100
AcDbLine
 10
159
 20
102.5
 11
151
 21
102.5
  0
MTEXT
  5
1A1
100
AcDbEntity
  8
Busbar
  6
ByLayer
 62
  256
370
    0
100
AcDbMText
 10
151.4375
 20
101
 30
0
 40
1.5
 41
10.45833333333349
 71
    2
 72
    1
  1
~15V Bat.2
  7
iso
210
0
220
0
230
1
 50
0
 73
    2
 44
1
  0
LINE
  5
1A2
100
AcDbEntity
  8
Wires
  6
ByLayer
 62
  256
370
   -1
100
AcDbLine
 10
159
 20
98.5
 11
159
 21
101.5
  0
LINE
  5
1A3
100
AcDbEntity
  8
SoC
  6
ByLayer
 62
  256
370
   -1
100
AcDbLine
 10
116
 20
147.5
 11
116
 21
139.5
  0
MTEXT
  5
1A4
100
AcDbEntity
  8
Regulators
  6
ByLayer
 62
  256
370
   -1
100
AcDbMText
 10
140
 20
132.5
 30
0
 40
1.5
 41
9.833333015330108
 71
    2
 72
    1
  1
VictorSPX
  7
iso
210
0
220
0
230
1
 50
0
 73
    2
 44
1
  0
LWPOLYLINE
  5
1A5
100
AcDbEntity
  8
Regulators
  6
ByLayer
 62
  256
370
   -1
100
AcDbPolyline
 90
    4
 70
    1
 43
0
 10
134
 20
133.5
 10
146
 20
133.5
 10
146
 20
129.5
 10
134
 20
129.5
  0
LWPOLYLINE
  5
1A6
100
AcDbEntity
  8
Motors
  6
ByLayer
 62
  256
370
   -1
100
AcDbPolyline
 90
    4
 70
    1
 43
0
 10
139
 20
136.5
 10
132
 20
136.5
 10
132
 20
140.5
 10
139
 20
140.5
  0
LWPOLYLINE
  5
1A7
100
AcDbEntity
  8
Motors
  6
ByLayer
 62
  256
370
   -1
100
AcDbPolyline
 90
    4
 70
    1
 43
0
 10
132
 20
137.5
 10
131
 20
137.5
 10
131
 20
139.5
 10
132
 20
139.5
  0
LINE
  5
1A8
100
AcDbEntity
  8
Motors
  6
ByLayer
 62
  256
370
   -1
100
AcDbLine
 10
131
 20
138
 11
128.1
 21
138
  0
LINE
  5
1A9
100
AcDbEntity
  8
Motors
  6
ByLayer
 62
  256
370
   -1
100
AcDbLine
 10
131
 20
139
 11
128.1
 21
139
  0
LINE
  5
1AA
100
AcDbEntity
  8
Motors
  6
ByLayer
 62
  256
370
   -1
100
AcDbLine
 10
128.1
 20
139
 11
128.1
 21
138.57
  0
LWPOLYLINE
  5
1AB
100
AcDbEntity
  8
Motors
  6
ByLayer
 62
  256
370
   -1
100
AcDbPolyline
 90
    4
 70
    1
 43
0
 10
139
 20
136.5
 10
140
 20
136.5
 10
140
 20
140.5
 10
139
 20
140.5
  0
SPLINE
  5
1AC
100
AcDbEntity
  8
Motors
  6
ByLayer
 62
  256
370
   -1
100
AcDbSpline
210
0
220
0
230
0
 70
    8
 71
    3
 72
    9
 73
    5
 74
    0
 42
1e-07
 43
1e-07
 40
0
 40
0
 40
0
 40
0
 40
0.5
 40
1
 40
1
 40
1
 40
1
 10
128.1
 20
139
 30
0
 10
128.5
 20
138.7
 30
0
 10
127.6
 20
138.5
 30
0
 10
128.1
 20
138
 30
0
 10
128.1
 20
138
 30
0
  0
LINE
  5
1AD
100
AcDbEntity
  8
Wires
  6
ByLayer
 62
  256
370
   -1
100
AcDbLine
 10
131
 20
110.5
 11
148
 21
110.5
  0
LINE
  5
1AE
100
AcDbEntity
  8
Wires
  6
ByLayer
 62
  256
370
   -1
100
AcDbLine
 10
148
 20
110.5
 11
148
 21
130.5
  0
LINE
  5
1AF
100
AcDbEntity
  8
Wires
  6
ByLayer
 62
  256
370
   -1
100
AcDbLine
 10
148
 20
130.5
 11
146
 21
130.5
  0
MTEXT
  5
1B0
100
AcDbEntity
  8
Regulators
  6
ByLayer
 62
  256
370
   -1
100
AcDbMText
 10
145
 20
134.5
 30
0
 40
0.8
 41
1.866666666666766
 71
    2
 72
    1
  1
GND
  7
iso
210
0
220
0
230
1
 50
0
 73
    2
 44
1
  0
LINE
  5
1B1
100
AcDbEntity
  8
Wires
  6
ByLayer
 62
  256
370
   -1
100
AcDbLine
 10
153
 20
132.5
 11
153
 21
129.5
  0
LINE
  5
1B2
100
AcDbEntity
  8
Wires
  6
ByLayer
 62
  256
370
   -1
100
AcDbLine
 10
150
 20
129.5
 11
156
 21
129.5
  0
LINE
  5
1B3
100
AcDbEntity
  8
Wires
  6
ByLayer
 62
  256
370
   -1
100
AcDbLine
 10
151
 20
128.5
 11
155
 21
128.5
  0
LINE
  5
1B4
100
AcDbEntity
  8
Wires
  6
ByLayer
 62
  256
370
   -1
100
AcDbLine
 10
154
 20
127.5
 11
152
 21
127.5
  0
LINE
  5
1B5
100
AcDbEntity
  8
Wires
  6
ByLayer
 62
  256
370
   -1
100
AcDbLine
 10
146
 20
132.5
 11
153
 21
132.5
  0
LINE
  5
1B6
100
AcDbEntity
  8
Wires
  6
ByLayer
 62
  256
370
   -1
100
AcDbLine
 10
140
 20
137.5
 11
141
 21
137.5
  0
LINE
  5
1B7
100
AcDbEntity
  8
Wires
  6
ByLayer
 62
  256
370
   -1
100
AcDbLine
 10
141
 20
137.5
 11
141
 21
133.5
  0
LINE
  5
1B8
100
AcDbEntity
  8
Wires
  6
ByLayer
 62
  256
370
   -1
100
AcDbLine
 10
140
 20
139.5
 11
142
 21
139.5
  0
LINE
  5
1B9
100
AcDbEntity
  8
Wires
  6
ByLayer
 62
  256
370
   -1
100
AcDbLine
 10
142
 20
139.5
 11
142
 21
133.5
  0
LINE
  5
1BA
100
AcDbEntity
  8
Wires
  6
ByLayer
 62
  256
370
   -1
100
AcDbLine
 10
139.5
 20
140.5
 11
139.5
 21
158.5
  0
LINE
  5
1BB
100
AcDbEntity
  8
Wires
  6
ByLayer
 62
  256
370
   -1
100
AcDbLine
 10
139.5
 20
158.5
 11
113
 21
158.5
  0
LINE
  5
1BC
100
AcDbEntity
  8
Wires
  6
ByLayer
 62
  256
370
   -1
100
AcDbLine
 10
113
 20
158.5
 11
113
 21
146.5
  0
LINE
  5
1BD
100
AcDbEntity
  8
Wires
  6
ByLayer
 62
  256
370
   -1
100
AcDbLine
 10
113
 20
146.5
 11
116
 21
146.5
  0
MTEXT
  5
1BE
100
AcDbEntity
  8
Wires
  6
ByLayer
 62
  256
370
   -1
100
AcDbMText
 10
123
 20
138.5
 30
0
 40
1
 41
5.000000514287198
 71
    1
 72
    1
  1
PWM\PDrive\POutputs
  7
iso
210
0
220
0
230
1
 50
0
 73
    2
 44
1
  0
LINE
  5
1BF
100
AcDbEntity
  8
Wires
  6
ByLayer
 62
  256
370
   -1
100
AcDbLine
 10
122
 20
139.5
 11
122
 21
131.5
  0
LINE
  5
1C0
100
AcDbEntity
  8
Wires
  6
ByLayer
 62
  256
370
   -1
100
AcDbLine
 10
122
 20
131.5
 11
134
 21
131.5
  0
MTEXT
  5
1C1
100
AcDbEntity
  8
Sources
  6
ByLayer
 62
  256
370
   -1
100
AcDbMText
 10
196.0416666666667
 20
116.5
 30
0
 40
1
 41
4.972222222222329
 71
    2
 72
    1
  1
5V Reg.
  7
iso
210
0
220
0
230
1
 50
360
 73
    2
 44
1
  0
LINE
  5
1C2
100
AcDbEntity
  8
Busbar
  6
ByLayer
 62
  256
370
   -1
100
AcDbLine
 10
222
 20
120.5
 11
222
 21
122.5
  0
LINE
  5
1C3
100
AcDbEntity
  8
Busbar
  6
ByLayer
 62
  256
370
   -1
100
AcDbLine
 10
222
 20
122.5
 11
222
 21
124.5
  0
LINE
  5
1C4
100
AcDbEntity
  8
Busbar
  6
ByLayer
 62
  256
370
   -1
100
AcDbLine
 10
222
 20
124.5
 11
222
 21
126.5
  0
LINE
  5
1C5
100
AcDbEntity
  8
Busbar
  6
ByLayer
 62
  256
370
   -1
100
AcDbLine
 10
227
 20
120.5
 11
227
 21
122.5
  0
LINE
  5
1C6
100
AcDbEntity
  8
Busbar
  6
ByLayer
 62
  256
370
   -1
100
AcDbLine
 10
228
 20
122.5
 11
226
 21
122.5
  0
LINE
  5
1C7
100
AcDbEntity
  8
Busbar
  6
ByLayer
 62
  256
370
   -1
100
AcDbLine
 10
227
 20
122.5
 11
227
 21
124.5
  0
LINE
  5
1C8
100
AcDbEntity
  8
Busbar
  6
ByLayer
 62
  256
370
   -1
100
AcDbLine
 10
228
 20
124.5
 11
226
 21
124.5
  0
LINE
  5
1C9
100
AcDbEntity
  8
Busbar
  6
ByLayer
 62
  256
370
   -1
100
AcDbLine
 10
227
 20
124.5
 11
227
 21
126.5
  0
LINE
  5
1CA
100
AcDbEntity
  8
Busbar
  6
ByLayer
 62
  256
370
   -1
100
AcDbLine
 10
228
 20
126.5
 11
226
 21
126.5
  0
LINE
  5
1CB
100
AcDbEntity
  8
Busbar
  6
ByLayer
 62
  256
370
   -1
100
AcDbLine
 10
228
 20
120.5
 11
226
 21
120.5
  0
LINE
  5
1CC
100
AcDbEntity
  8
Busbar
  6
ByLayer
 62
  256
370
   -1
100
AcDbLine
 10
223
 20
122.5
 11
221
 21
122.5
  0
LINE
  5
1CD
100
AcDbEntity
  8
Busbar
  6
ByLayer
 62
  256
370
   -1
100
AcDbLine
 10
223
 20
124.5
 11
221
 21
124.5
  0
LINE
  5
1CE
100
AcDbEntity
  8
Busbar
  6
ByLayer
 62
  256
370
   -1
100
AcDbLine
 10
223
 20
126.5
 11
221
 21
126.5
  0
LINE
  5
1CF
100
AcDbEntity
  8
Busbar
  6
ByLayer
 62
  256
370
   -1
100
AcDbLine
 10
223
 20
120.5
 11
221
 21
120.5
  0
LINE
  5
1D0
100
AcDbEntity
  8
Wires
  6
ByLayer
 62
  256
370
   -1
100
AcDbLine
 10
164
 20
110.5
 11
164
 21
141.5
  0
LINE
  5
1D1
100
AcDbEntity
  8
Wires
  6
ByLayer
 62
  256
370
   -1
100
AcDbLine
 10
165
 20
131.5
 11
171
 21
131.5
  0
LINE
  5
1D2
100
AcDbEntity
  8
Wires
  6
ByLayer
 62
  256
370
   -1
100
AcDbLine
 10
166
 20
130.5
 11
170
 21
130.5
  0
LINE
  5
1D3
100
AcDbEntity
  8
Wires
  6
ByLayer
 62
  256
370
   -1
100
AcDbLine
 10
169
 20
129.5
 11
167
 21
129.5
  0
LINE
  5
1D4
100
AcDbEntity
  8
Wires
  6
ByLayer
 62
  256
370
   -1
100
AcDbLine
 10
168
 20
141.5
 11
168
 21
131.5
  0
LINE
  5
1D5
100
AcDbEntity
  8
Wires
  6
ByLayer
 62
  256
370
   -1
100
AcDbLine
 10
222
 20
146.5
 11
222
 21
151.5
  0
LINE
  5
1D6
100
AcDbEntity
  8
Busbar
  6
ByLayer
 62
  256
370
   -1
100
AcDbLine
 10
222
 20
151.5
 11
222
 21
153.5
  0
LINE
  5
1D7
100
AcDbEntity
  8
Busbar
  6
ByLayer
 62
  256
370
   -1
100
AcDbLine
 10
222
 20
153.5
 11
222
 21
155.5
  0
LINE
  5
1D8
100
AcDbEntity
  8
Busbar
  6
ByLayer
 62
  256
370
   -1
100
AcDbLine
 10
222
 20
155.5
 11
222
 21
157.5
  0
LINE
  5
1D9
100
AcDbEntity
  8
Busbar
  6
ByLayer
 62
  256
370
   -1
100
AcDbLine
 10
227
 20
151.5
 11
227
 21
153.5
  0
LINE
  5
1DA
100
AcDbEntity
  8
Busbar
  6
ByLayer
 62
  256
370
   -1
100
AcDbLine
 10
228
 20
153.5
 11
226
 21
153.5
  0
LINE
  5
1DB
100
AcDbEntity
  8
Busbar
  6
ByLayer
 62
  256
370
   -1
100
AcDbLine
 10
227
 20
153.5
 11
227
 21
155.5
  0
LINE
  5
1DC
100
AcDbEntity
  8
Busbar
  6
ByLayer
 62
  256
370
   -1
100
AcDbLine
 10
228
 20
155.5
 11
226
 21
155.5
  0
LINE
  5
1DD
100
AcDbEntity
  8
Busbar
  6
ByLayer
 62
  256
370
   -1
100
AcDbLine
 10
227
 20
155.5
 11
227
 21
157.5
  0
LINE
  5
1DE
100
AcDbEntity
  8
Busbar
  6
ByLayer
 62
  256
370
   -1
100
AcDbLine
 10
228
 20
157.5
 11
226
 21
157.5
  0
LINE
  5
1DF
100
AcDbEntity
  8
Busbar
  6
ByLayer
 62
  256
370
   -1
100
AcDbLine
 10
228
 20
151.5
 11
226
 21
151.5
  0
LINE
  5
1E0
100
AcDbEntity
  8
Busbar
  6
ByLayer
 62
  256
370
   -1
100
AcDbLine
 10
223
 20
153.5
 11
221
 21
153.5
  0
LINE
  5
1E1
100
AcDbEntity
  8
Busbar
  6
ByLayer
 62
  256
370
   -1
100
AcDbLine
 10
223
 20
155.5
 11
221
 21
155.5
  0
LINE
  5
1E2
100
AcDbEntity
  8
Busbar
  6
ByLayer
 62
  256
370
   -1
100
AcDbLine
 10
223
 20
157.5
 11
221
 21
157.5
  0
LINE
  5
1E3
100
AcDbEntity
  8
Busbar
  6
ByLayer
 62
  256
370
   -1
100
AcDbLine
 10
223
 20
151.5
 11
221
 21
151.5
  0
LWPOLYLINE
  5
1E4
100
AcDbEntity
  8
Sources
  6
ByLayer
 62
  256
370
   -1
100
AcDbPolyline
 90
    4
 70
    1
 43
0
 10
173
 20
141.5
 10
159
 20
141.5
 10
159
 20
148.5
 10
173
 20
148.5
  0
LINE
  5
1E5
100
AcDbEntity
  8
Wires
  6
ByLayer
 62
  256
370
   -1
100
AcDbLine
 10
173
 20
146.5
 11
222
 21
146.5
  0
LINE
  5
1E6
100
AcDbEntity
  8
Wires
  6
ByLayer
 62
  256
370
   -1
100
AcDbLine
 10
227
 20
143.5
 11
227
 21
151.5
  0
LINE
  5
1E7
100
AcDbEntity
  8
Wires
  6
ByLayer
 62
  256
370
   -1
100
AcDbLine
 10
173
 20
143.5
 11
227
 21
143.5
  0
MTEXT
  5
1E8
100
AcDbEntity
  8
Wires
  6
ByLayer
 62
  256
370
   -1
100
AcDbMText
 10
227.5555555555557
 20
160.5
 30
0
 40
2
 41
4.666666666666914
 71
    2
 72
    1
  1
GND
  7
iso
210
0
220
0
230
1
 50
360
 73
    2
 44
1
  0
MTEXT
  5
1E9
100
AcDbEntity
  8
Wires
  6
ByLayer
 62
  256
370
   -1
100
AcDbMText
 10
221.3333333333333
 20
160.5
 30
0
 40
2
 41
4
 71
    2
 72
    1
  1
12V
  7
iso
210
0
220
0
230
1
 50
360
 73
    2
 44
1
  0
LWPOLYLINE
  5
1EA
100
AcDbEntity
  8
Sources
  6
ByLayer
 62
  256
370
   -1
100
AcDbPolyline
 90
    4
 70
    1
 43
0
 10
188
 20
135.5
 10
174
 20
135.5
 10
174
 20
142.5
 10
188
 20
142.5
  0
MTEXT
  5
1EB
100
AcDbEntity
  8
Sources
  6
ByLayer
 62
  256
370
   -1
100
AcDbMText
 10
166
 20
147.4
 30
0
 40
1.5
 41
9.333333333333471
 71
    2
 72
    1
  1
12V\PRegulator
  7
iso
210
0
220
0
230
1
 50
0
 73
    2
 44
1
  0
MTEXT
  5
1EC
100
AcDbEntity
  8
Sources
  6
ByLayer
 62
  256
370
   -1
100
AcDbMText
 10
180.9166666666666
 20
141.5
 30
0
 40
1.5
 41
9.333333333333471
 71
    2
 72
    1
  1
5V\PRegulator
  7
iso
210
0
220
0
230
1
 50
0
 73
    2
 44
1
  0
LINE
  5
1ED
100
AcDbEntity
  8
Wires
  6
ByLayer
 62
  256
370
   -1
100
AcDbLine
 10
178
 20
108.5
 11
178
 21
135.5
  0
LINE
  5
1EE
100
AcDbEntity
  8
Wires
  6
ByLayer
 62
  256
370
   -1
100
AcDbLine
 10
174
 20
138.5
 11
168
 21
138.5
  0
CIRCLE
  5
1EF
100
AcDbEntity
  8
Junction
  6
ByLayer
 62
  256
370
   -1
100
AcDbCircle
 10
168
 20
138.5
 40
0.3000000000000007
  0
MTEXT
  5
1F0
100
AcDbEntity
  8
Wires
  6
ByLayer
 62
  256
370
   -1
100
AcDbMText
 10
227.5555555555557
 20
119.5
 30
0
 40
2
 41
4.666666666666914
 71
    2
 72
    1
  1
GND
  7
iso
210
0
220
0
230
1
 50
360
 73
    2
 44
1
  0
MTEXT
  5
1F1
100
AcDbEntity
  8
Wires
  6
ByLayer
 62
  256
370
   -1
100
AcDbMText
 10
221.8888888888888
 20
119.5
 30
0
 40
2
 41
2.888888888889013
 71
    2
 72
    1
  1
5V
  7
iso
210
0
220
0
230
1
 50
360
 73
    2
 44
1
  0
LINE
  5
1F2
100
AcDbEntity
  8
Wires
  6
ByLayer
 62
  256
370
   -1
100
AcDbLine
 10
188
 20
137.5
 11
227
 21
137.5
  0
LINE
  5
1F3
100
AcDbEntity
  8
Wires
  6
ByLayer
 62
  256
370
   -1
100
AcDbLine
 10
227
 20
137.5
 11
227
 21
126.5
  0
LINE
  5
1F4
100
AcDbEntity
  8
Wires
  6
ByLayer
 62
  256
370
   -1
100
AcDbLine
 10
188
 20
140.5
 11
222
 21
140.5
  0
LINE
  5
1F5
100
AcDbEntity
  8
Wires
  6
ByLayer
 62
  256
370
   -1
100
AcDbLine
 10
222
 20
140.5
 11
222
 21
126.5
  0
LINE
  5
1F6
100
AcDbEntity
  8
SoC
  6
ByLayer
 62
  256
370
   -1
100
AcDbLine
 10
116
 20
139.5
 11
127
 21
139.5
  0
LINE
  5
1F7
100
AcDbEntity
  8
SoC
  6
ByLayer
 62
  256
370
   -1
100
AcDbLine
 10
127
 20
147.5
 11
127
 21
139.5
  0
LINE
  5
1F8
100
AcDbEntity
  8
Wires
  6
ByLayer
 62
  256
370
   -1
100
AcDbLine
 10
222
 20
121.5
 11
216
 21
121.5
  0
LINE
  5
1F9
100
AcDbEntity
  8
Wires
  6
ByLayer
 62
  256
370
   -1
100
AcDbLine
 10
216
 20
121.5
 11
216
 21
109.5
  0
LINE
  5
1FA
100
AcDbEntity
  8
Wires
  6
ByLayer
 62
  256
370
   -1
100
AcDbLine
 10
216
 20
109.5
 11
221
 21
109.5
  0
LINE
  5
1FB
100
AcDbEntity
  8
Wires
  6
ByLayer
 62
  256
370
   -1
100
AcDbLine
 10
231
 20
109.5
 11
236
 21
109.5
  0
LINE
  5
1FC
100
AcDbEntity
  8
Wires
  6
ByLayer
 62
  256
370
   -1
100
AcDbLine
 10
236
 20
109.5
 11
236
 21
121.5
  0
LINE
  5
1FD
100
AcDbEntity
  8
Wires
  6
ByLayer
 62
  256
370
   -1
100
AcDbLine
 10
236
 20
121.5
 11
227
 21
121.5
  0
MTEXT
  5
1FE
100
AcDbEntity
  8
Sensors
  6
ByLayer
 62
  256
370
   -1
100
AcDbMText
 10
226
 20
110.5
 30
0
 40
1
 41
7.777777777777839
 71
    2
 72
    1
  1
5V-powered\Psensors
  7
iso
210
0
220
0
230
1
 50
0
 73
    2
 44
1
  0
LWPOLYLINE
  5
1FF
100
AcDbEntity
  8
Sensors
  6
ByLayer
 62
  256
370
   -1
100
AcDbPolyline
 90
    4
 70
    1
 43
0
 10
221
 20
111.5
 10
231
 20
111.5
 10
231
 20
106.5
 10
221
 20
106.5
  0
LWPOLYLINE
  5
200
100
AcDbEntity
  8
Sensors
  6
ByLayer
 62
  256
370
   -1
100
AcDbPolyline
 90
    4
 70
    1
 43
0
 10
221
 20
169.5
 10
231
 20
169.5
 10
231
 20
164.5
 10
221
 20
164.5
  0
LINE
  5
201
100
AcDbEntity
  8
Wires
  6
ByLayer
 62
  256
370
   -1
100
AcDbLine
 10
222
 20
156.5
 11
216
 21
156.5
  0
LINE
  5
202
100
AcDbEntity
  8
Wires
  6
ByLayer
 62
  256
370
   -1
100
AcDbLine
 10
216
 20
156.5
 11
216
 21
167.5
  0
LINE
  5
203
100
AcDbEntity
  8
Wires
  6
ByLayer
 62
  256
370
   -1
100
AcDbLine
 10
216
 20
167.5
 11
221
 21
167.5
  0
LINE
  5
204
100
AcDbEntity
  8
Wires
  6
ByLayer
 62
  256
370
   -1
100
AcDbLine
 10
231
 20
167.5
 11
235
 21
167.5
  0
LINE
  5
205
100
AcDbEntity
  8
Wires
  6
ByLayer
 62
  256
370
   -1
100
AcDbLine
 10
235
 20
167.5
 11
235
 21
156.5
  0
LINE
  5
206
100
AcDbEntity
  8
Wires
  6
ByLayer
 62
  256
370
   -1
100
AcDbLine
 10
235
 20
156.5
 11
227
 21
156.5
  0
MTEXT
  5
207
100
AcDbEntity
  8
Sensors
  6
ByLayer
 62
  256
370
   -1
100
AcDbMText
 10
226
 20
168.5
 30
0
 40
1
 41
8.333333333333332
 71
    2
 72
    1
  1
12V-powered\Psensors
  7
iso
210
0
220
0
230
1
 50
0
 73
    2
 44
1
  0
MTEXT
  5
208
100
AcDbEntity
  8
SoC
  6
ByLayer
 62
  256
370
   -1
100
AcDbMText
 10
126.3
 20
144.2
 30
0
 40
0.5
 41
3.888889403176132
 71
    2
 72
    1
  1
Thermistors
  7
iso
210
0
220
0
230
1
 50
90
 73
    2
 44
1
  0
LINE
  5
209
100
AcDbEntity
  8
Wires
  6
ByLayer
 62
  256
370
   -1
100
AcDbLine
 10
127
 20
145.5
 11
130
 21
145.5
  0
LINE
  5
20A
100
AcDbEntity
  8
Wires
  6
ByLayer
 62
  256
370
   -1
100
AcDbLine
 10
127
 20
144.5
 11
130
 21
144.5
  0
LINE
  5
20B
100
AcDbEntity
  8
Wires
  6
ByLayer
 62
  256
370
   -1
100
AcDbLine
 10
127
 20
143.5
 11
130
 21
143.5
  0
LINE
  5
20C
100
AcDbEntity
  8
Wires
  6
ByLayer
 62
  256
370
   -1
100
AcDbLine
 10
127
 20
142.5
 11
130
 21
142.5
  0
MTEXT
  5
20D
100
AcDbEntity
  8
Relays
  6
ByLayer
 62
  256
370
   -1
100
AcDbMText
 10
156
 20
93
 30
0
 40
1
 41
10.00000000000016
 71
    2
 72
    1
  1
200A, 60V max
  7
iso
210
0
220
0
230
1
 50
0
 73
    2
 44
1
  0
LINE
  5
20E
100
AcDbEntity
  8
Wires
  6
ByLayer
 62
  256
370
   -1
100
AcDbLine
 10
178
 20
108.5
 11
178
 21
89.5
  0
LINE
  5
20F
100
AcDbEntity
  8
Wires
  6
ByLayer
 62
  256
370
   -1
100
AcDbLine
 10
164
 20
110.5
 11
176
 21
110.5
  0
LINE
  5
210
100
AcDbEntity
  8
Wires
  6
ByLayer
 62
  256
370
   -1
100
AcDbLine
 10
176
 20
110.5
 11
176
 21
89.5
  0
LINE
  5
211
100
AcDbEntity
  8
Breakers
  6
ByLayer
 62
  256
370
   -1
100
AcDbLine
 10
133.6363961030679
 20
98.91923881554251
 11
133.9192388155425
 21
98.63639610306791
  0
LINE
  5
212
100
AcDbEntity
  8
Breakers
  6
ByLayer
 62
  256
370
   -1
100
AcDbLine
 10
133.1826156786842
 20
98.46545839115879
 11
133.6363961030679
 21
98.91923881554251
  0
LINE
  5
213
100
AcDbEntity
  8
Breakers
  6
ByLayer
 62
  256
370
   -1
100
AcDbLine
 10
133.9192388155425
 20
98.63639610306791
 11
133.4654583911574
 21
98.18261567868275
  0
LINE
  5
214
100
AcDbEntity
  8
Breakers
  6
ByLayer
 62
  256
370
   -1
100
AcDbLine
 10
133
 20
98.7
 11
133
 21
97.3
  0
ARC
  5
215
100
AcDbEntity
  8
Breakers
  6
ByLayer
 62
  256
370
   -1
100
AcDbCircle
 10
133
 20
98
 40
0.5
100
AcDbArc
 50
270
 51
90
  0
LWPOLYLINE
  5
216
100
AcDbEntity
  8
Breakers
  6
ByLayer
 62
  256
370
   -1
100
AcDbPolyline
 90
    4
 70
    1
 43
0
 10
129
 20
99.5
 10
133
 20
99.5
 10
133
 20
96.5
 10
129
 20
96.5
  0
LINE
  5
217
100
AcDbEntity
  8
Wires
  6
ByLayer
 62
  256
370
   -1
100
AcDbLine
 10
131
 20
101.5
 11
131
 21
99.5
  0
LINE
  5
218
100
AcDbEntity
  8
Wires
  6
ByLayer
 62
  256
370
   -1
100
AcDbLine
 10
131
 20
96.5
 11
131
 21
89.5
  0
MTEXT
  5
219
100
AcDbEntity
  8
Breakers
  6
ByLayer
 62
  256
370
   -1
100
AcDbMText
 10
129.8
 20
98.5
 30
0
 40
1
 41
2.777777777777778
 71
    1
 72
    1
  1
100A
  7
standard
210
0
220
0
230
1
 50
0
 73
    2
 44
1
  0
CIRCLE
  5
21A
100
AcDbEntity
  8
Junction
  6
ByLayer
 62
  256
370
   -1
100
AcDbCircle
 10
166
 20
89.5
 40
0.3000000000000007
  0
LINE
  5
21B
100
AcDbEntity
  8
Wires
  6
ByLayer
 62
  256
370
   -1
100
AcDbLine
 10
166
 20
98.5
 11
166
 21
95.5
  0
LINE
  5
21C
100
AcDbEntity
  8
Wires
  6
ByLayer
 62
  256
370
   -1
100
AcDbLine
 10
166
 20
92.5
 11
166
 21
89.5
  0
LINE
  5
21D
100
AcDbEntity
  8
Breakers
  6
ByLayer
 62
  256
370
   -1
100
AcDbLine
 10
168.6363961030679
 20
94.91923881554251
 11
168.9192388155425
 21
94.63639610306791
  0
LINE
  5
21E
100
AcDbEntity
  8
Breakers
  6
ByLayer
 62
  256
370
   -1
100
AcDbLine
 10
168.1826156786842
 20
94.46545839115879
 11
168.6363961030679
 21
94.91923881554251
  0
LINE
  5
21F
100
AcDbEntity
  8
Breakers
  6
ByLayer
 62
  256
370
   -1
100
AcDbLine
 10
168.9192388155425
 20
94.63639610306791
 11
168.4654583911574
 21
94.18261567868275
  0
LINE
  5
220
100
AcDbEntity
  8
Breakers
  6
ByLayer
 62
  256
370
   -1
100
AcDbLine
 10
168
 20
94.7
 11
168
 21
93.3
  0
ARC
  5
221
100
AcDbEntity
  8
Breakers
  6
ByLayer
 62
  256
370
   -1
100
AcDbCircle
 10
168
 20
94
 40
0.5
100
AcDbArc
 50
270
 51
90
  0
LWPOLYLINE
  5
222
100
AcDbEntity
  8
Breakers
  6
ByLayer
 62
  256
370
   -1
100
AcDbPolyline
 90
    4
 70
    1
 43
0
 10
164
 20
95.5
 10
168
 20
95.5
 10
168
 20
92.5
 10
164
 20
92.5
  0
LINE
  5
223
100
AcDbEntity
  8
Wires
  6
ByLayer
 62
  256
370
   -1
100
AcDbLine
 10
166
 20
98.5
 11
159
 21
98.5
  0
LINE
  5
224
100
AcDbEntity
  8
Breakers
  6
ByLayer
 62
  256
370
   -1
100
AcDbLine
 10
172.1363961030679
 20
90.41923881554251
 11
172.4192388155425
 21
90.13639610306791
  0
LINE
  5
225
100
AcDbEntity
  8
Breakers
  6
ByLayer
 62
  256
370
   -1
100
AcDbLine
 10
171.6826156786842
 20
89.96545839115879
 11
172.1363961030679
 21
90.41923881554251
  0
LINE
  5
226
100
AcDbEntity
  8
Breakers
  6
ByLayer
 62
  256
370
   -1
100
AcDbLine
 10
172.4192388155425
 20
90.13639610306791
 11
171.9654583911574
 21
89.68261567868275
  0
LINE
  5
227
100
AcDbEntity
  8
Breakers
  6
ByLayer
 62
  256
370
   -1
100
AcDbLine
 10
171.5
 20
90.2
 11
171.5
 21
88.8
  0
ARC
  5
228
100
AcDbEntity
  8
Breakers
  6
ByLayer
 62
  256
370
   -1
100
AcDbCircle
 10
171.5
 20
89.5
 40
0.5
100
AcDbArc
 50
270
 51
90
  0
LWPOLYLINE
  5
229
100
AcDbEntity
  8
Breakers
  6
ByLayer
 62
  256
370
   -1
100
AcDbPolyline
 90
    4
 70
    1
 43
0
 10
167.5
 20
91
 10
171.5
 20
91
 10
171.5
 20
88
 10
167.5
 20
88
  0
LINE
  5
22A
100
AcDbEntity
  8
Wires
  6
ByLayer
 62
  256
370
   -1
100
AcDbLine
 10
160
 20
89.5
 11
167.5
 21
89.5
  0
LINE
  5
22B
100
AcDbEntity
  8
Wires
  6
ByLayer
 62
  256
370
   -1
100
AcDbLine
 10
172
 20
89.5
 11
173
 21
89.5
  0
MTEXT
  5
22C
100
AcDbEntity
  8
Breakers
  6
ByLayer
 62
  256
370
   -1
100
AcDbMText
 10
164.8
 20
94.5
 30
0
 40
1
 41
2.777777777777778
 71
    1
 72
    1
  1
100A
  7
standard
210
0
220
0
230
1
 50
0
 73
    2
 44
1
  0
MTEXT
  5
22D
100
AcDbEntity
  8
Breakers
  6
ByLayer
 62
  256
370
   -1
100
AcDbMText
 10
168.3
 20
90
 30
0
 40
1
 41
2.777777777777839
 71
    1
 72
    1
  1
150A
  7
standard
210
0
220
0
230
1
 50
0
 73
    2
 44
1
  0
LINE
  5
22E
100
AcDbEntity
  8
Wires
  6
ByLayer
 62
  256
370
   -1
100
AcDbLine
 10
102
 20
91.5
 11
102
 21
95.50000000000001
  0
LINE
  5
22F
100
AcDbEntity
  8
Wires
  6
ByLayer
 62
  256
370
   -1
100
AcDbLine
 10
102
 20
95.50000000000001
 11
117
 21
95.5
  0
LINE
  5
230
100
AcDbEntity
  8
Wires
  6
ByLayer
 62
  256
370
   -1
100
AcDbLine
 10
138
 20
91.5
 11
138
 21
94
  0
LINE
  5
231
100
AcDbEntity
  8
Wires
  6
ByLayer
 62
  256
370
   -1
100
AcDbLine
 10
138
 20
94
 11
149
 21
94
  0
LINE
  5
232
100
AcDbEntity
  8
Wires
  6
ByLayer
 62
  256
370
   -1
100
AcDbLine
 10
149
 20
94
 11
149
 21
89.50000000000001
  0
CIRCLE
  5
233
100
AcDbEntity
  8
Junction
  6
ByLayer
 62
  256
370
   -1
100
AcDbCircle
 10
117
 20
95.49999999999999
 40
0.3000000000000007
  0
CIRCLE
  5
234
100
AcDbEntity
  8
Junction
  6
ByLayer
 62
  256
370
   -1
100
AcDbCircle
 10
149
 20
89.49999999999999
 40
0.3000000000000007
  0
MTEXT
  5
235
100
AcDbEntity
  8
Sensors
  6
ByLayer
 62
  256
370
   -1
100
AcDbMText
 10
102.7
 20
92.2
 30
0
 40
0.5
 41
0.8888888888888888
 71
    2
 72
    1
  1
ref
  7
iso
210
0
220
0
230
1
 50
0
 73
    2
 44
1
  0
MTEXT
  5
236
100
AcDbEntity
  8
Sensors
  6
ByLayer
 62
  256
370
   -1
100
AcDbMText
 10
138.7
 20
92.20000000000002
 30
0
 40
0.5
 41
0.8888888888888888
 71
    2
 72
    1
  1
ref
  7
iso
210
0
220
0
230
1
 50
0
 73
    2
 44
1
  0
MTEXT
  5
237
100
AcDbEntity
  8
Sources
  6
ByLayer
 62
  256
370
   -1
100
AcDbMText
 10
112
 20
85.5
 30
0
 40
1.5
 41
5.958333333333333
 71
    2
 72
    1
  1
14.8 V
  7
iso
210
0
220
0
230
1
 50
0
 73
    2
 44
1
  0
MTEXT
  5
238
100
AcDbEntity
  8
Sources
  6
ByLayer
 62
  256
370
   -1
100
AcDbMText
 10
144
 20
85.5
 30
0
 40
1.5
 41
5.958333333333333
 71
    2
 72
    1
  1
14.8 V
  7
iso
210
0
220
0
230
1
 50
0
 73
    2
 44
1
  0
LWPOLYLINE
  5
239
100
AcDbEntity
  8
BigRedButton
  6
ByLayer
 62
  256
370
   -1
100
AcDbPolyline
 90
    4
 70
    1
 43
0
 10
134
 20
71
 10
142
 20
71
 10
142
 20
78.5
 10
134
 20
78.5
  0
LINE
  5
23A
100
AcDbEntity
  8
BigRedButton
  6
ByLayer
 62
  256
370
   -1
100
AcDbLine
 10
142
 20
72
 11
141
 21
72
  0
CIRCLE
  5
23B
100
AcDbEntity
  8
BigRedButton
  6
ByLayer
 62
  256
370
   -1
100
AcDbCircle
 10
141
 20
72
 40
0.2236067977499784
  0
LINE
  5
23C
100
AcDbEntity
  8
BigRedButton
  6
ByLayer
 62
  256
370
   -1
100
AcDbLine
 10
134
 20
72
 11
135
 21
72
  0
CIRCLE
  5
23D
100
AcDbEntity
  8
BigRedButton
  6
ByLayer
 62
  256
370
   -1
100
AcDbCircle
 10
135
 20
72
 40
0.2236067977499784
  0
LINE
  5
23E
100
AcDbEntity
  8
Wires
  6
ByLayer
 62
  256
370
   -1
100
AcDbLine
 10
134
 20
74.5
 11
117
 21
74.50000000000001
  0
LINE
  5
23F
100
AcDbEntity
  8
Wires
  6
ByLayer
 62
  256
370
   -1
100
AcDbLine
 10
162
 20
87.5
 11
162
 21
72
  0
LINE
  5
240
100
AcDbEntity
  8
Wires
  6
ByLayer
 62
  256
370
   -1
100
AcDbLine
 10
162
 20
72
 11
142
 21
72
  0
LINE
  5
241
100
AcDbEntity
  8
Wires
  6
ByLayer
 62
  256
370
   -1
100
AcDbLine
 10
134
 20
72
 11
130
 21
72
  0
LINE
  5
242
100
AcDbEntity
  8
Wires
  6
ByLayer
 62
  256
370
   -1
100
AcDbLine
 10
130
 20
72
 11
130
 21
87.50000000000001
  0
LINE
  5
243
100
AcDbEntity
  8
Wires
  6
ByLayer
 62
  256
370
   -1
100
AcDbLine
 10
130
 20
87.50000000000001
 11
128
 21
87.50000000000001
  0
LINE
  5
244
100
AcDbEntity
  8
Wires
  6
ByLayer
 62
  256
370
   -1
100
AcDbLine
 10
117
 20
74.50000000000001
 11
117
 21
82.5
  0
CIRCLE
  5
245
100
AcDbEntity
  8
Junction
  6
ByLayer
 62
  256
370
   -1
100
AcDbCircle
 10
117
 20
82.49999999999999
 40
0.3000000000000007
  0
CIRCLE
  5
246
100
AcDbEntity
  8
Junction
  6
ByLayer
 62
  256
370
   -1
100
AcDbCircle
 10
162
 20
87.49999999999999
 40
0.3000000000000007
  0
ENDSEC
  0
SECTION
  2
OBJECTS
  0
DICTIONARY
  5
C
330
0
100
AcDbDictionary
281
    1
  3
ACAD_GROUP
350
D
  0
DICTIONARY
  5
D
330
C
100
AcDbDictionary
281
    1
  0
ENDSEC
  0
EOF
